<?xml version="1.0" standalone="no"?>
<!DOCTYPE svg PUBLIC "-//W3C//DTD SVG 20010904//EN"
 "http://www.w3.org/TR/2001/REC-SVG-20010904/DTD/svg10.dtd">
<svg version="1.0" xmlns="http://www.w3.org/2000/svg"
 width="512.000000pt" height="512.000000pt" viewBox="0 0 512.000000 512.000000"
 preserveAspectRatio="xMidYMid meet">
<metadata>
Created by potrace 1.14, written by Peter Selinger 2001-2017
</metadata>
<g transform="translate(0.000000,512.000000) scale(0.100000,-0.100000)"
fill="#000000" stroke="none">
<path d="M0 2560 l0 -2560 2560 0 2560 0 0 2560 0 2560 -2560 0 -2560 0 0
-2560z m2628 1248 c9 -9 12 -83 12 -270 0 -244 -1 -258 -19 -268 -12 -6 -102
-10 -225 -10 -173 0 -207 2 -220 16 -14 13 -16 51 -16 260 0 150 4 253 10 265
10 18 23 19 228 19 156 0 221 -3 230 -12z m12 -1337 c0 -462 3 -594 14 -654
23 -117 56 -170 131 -210 37 -21 57 -22 283 -25 l242 -3 0 -185 0 -185 -347 3
-348 3 -80 28 c-204 72 -298 191 -352 445 -13 63 -17 162 -20 535 l-5 457
-189 0 -189 0 0 185 0 185 430 0 430 0 0 -579z"/>
</g>
</svg>
