<?xml version="1.0" standalone="no"?>
<!DOCTYPE svg PUBLIC "-//W3C//DTD SVG 20010904//EN"
 "http://www.w3.org/TR/2001/REC-SVG-20010904/DTD/svg10.dtd">
<svg version="1.0" xmlns="http://www.w3.org/2000/svg"
 width="512.000000pt" height="512.000000pt" viewBox="0 0 512.000000 512.000000"
 preserveAspectRatio="xMidYMid meet">
<metadata>
Created by potrace 1.14, written by Peter Selinger 2001-2017
</metadata>
<g transform="translate(0.000000,512.000000) scale(0.100000,-0.100000)"
fill="#000000" stroke="none">
<path d="M1346 5102 c-3 -5 1 -9 9 -9 8 0 12 4 9 9 -3 4 -7 8 -9 8 -2 0 -6 -4
-9 -8z"/>
<path d="M1381 5089 c-7 -12 -8 -18 -2 -14 18 10 7 -32 -14 -55 -10 -11 -14
-20 -9 -20 5 0 15 9 22 21 8 12 19 18 28 15 8 -3 14 -1 14 4 0 6 -7 10 -15 10
-12 0 -13 4 -6 19 6 10 8 20 6 23 -3 3 2 5 10 5 11 0 12 -4 4 -14 -9 -9 -8
-17 1 -28 9 -10 9 -19 2 -27 -16 -20 -13 -32 11 -46 21 -12 21 -13 1 -7 -14 4
-21 1 -21 -10 0 -8 4 -15 9 -15 4 0 8 -5 8 -11 0 -8 -5 -8 -15 1 -10 8 -15 9
-15 2 0 -6 8 -16 18 -21 9 -6 12 -11 7 -11 -6 0 -17 6 -24 13 -11 10 -13 9 -8
-4 4 -12 -1 -15 -24 -14 -31 2 -36 -4 -18 -22 8 -8 7 -13 -2 -18 -7 -5 -10 -4
-5 3 3 6 2 13 -4 17 -5 3 -10 -1 -10 -9 0 -8 -9 -17 -19 -21 -13 -4 -18 -12
-15 -23 5 -14 4 -14 -4 -3 -8 11 -5 21 14 38 24 22 33 40 14 28 -5 -3 -10 -1
-10 6 0 8 -5 7 -17 -2 -15 -12 -16 -12 -10 6 5 14 1 12 -14 -7 -17 -23 -23
-26 -39 -16 -10 7 -16 17 -12 23 3 5 -2 4 -11 -4 -24 -19 -21 -33 6 -26 19 5
20 4 4 -5 -9 -6 -21 -9 -26 -5 -5 3 -12 1 -16 -5 -6 -9 8 -14 28 -11 5 1 6 -3
3 -8 -4 -5 0 -11 6 -14 7 -2 1 -4 -14 -3 -14 0 -24 4 -22 8 2 4 -1 10 -7 14
-6 3 -15 1 -19 -6 -5 -9 -9 -9 -14 -1 -4 6 -2 11 5 11 20 0 1 14 -21 15 -18 1
-24 -6 -22 -26 1 -4 -8 -5 -18 -2 -13 3 -20 0 -20 -8 0 -11 -2 -11 -10 1 -8
13 -11 12 -23 -4 -13 -17 -14 -17 -20 -2 -5 11 -3 15 5 10 7 -5 8 -3 3 6 -6 9
-4 11 5 5 8 -5 11 -4 7 2 -4 6 6 9 26 7 27 -3 35 1 49 25 13 24 13 29 2 24 -8
-3 -14 -11 -14 -19 0 -21 -20 -17 -21 4 0 14 -2 14 -7 2 -9 -19 -42 -22 -42
-4 0 8 6 11 15 8 8 -4 15 -2 15 4 0 16 -31 7 -42 -11 -6 -12 -5 -17 4 -17 9 0
9 -3 -1 -12 -10 -10 -15 -10 -18 -1 -3 8 -11 5 -24 -8 -15 -15 -17 -24 -10
-33 6 -7 7 -17 3 -21 -4 -5 -2 -5 4 -2 7 4 17 0 24 -8 9 -10 9 -15 1 -15 -6 0
-11 5 -11 11 0 5 -5 7 -12 3 -7 -5 -5 -11 7 -21 14 -10 7 -21 -7 -11 -9 5 -48
-25 -43 -33 4 -5 1 -9 -4 -9 -6 0 -11 6 -11 14 0 8 -3 17 -7 19 -5 3 -8 -5 -8
-18 0 -18 5 -22 23 -20 30 3 25 -26 -8 -42 l-25 -13 25 6 c14 4 22 3 18 -1 -4
-5 -2 -15 5 -23 10 -13 9 -14 -10 -3 -19 10 -22 9 -17 -4 3 -8 10 -12 15 -9
22 13 7 -23 -19 -46 -15 -14 -22 -21 -15 -16 7 5 13 5 13 0 0 -5 4 -3 9 4 7
11 9 11 14 -2 4 -9 -1 -17 -13 -21 -14 -4 -18 -13 -14 -37 2 -17 9 -36 15 -42
9 -8 10 -8 5 2 -4 6 -2 12 3 12 6 0 11 5 11 10 0 6 -5 9 -11 8 -6 -2 -14 4
-16 12 -4 12 -3 12 5 1 6 -8 12 -9 16 -3 3 6 0 12 -6 15 -7 2 -9 8 -5 13 4 5
13 2 18 -6 9 -12 10 -12 5 3 -4 12 -2 16 7 11 9 -5 9 -4 0 7 -7 7 -13 17 -13
23 0 5 6 2 13 -8 13 -18 36 -19 50 -1 5 6 7 4 4 -5 -2 -8 -9 -16 -15 -16 -7
-1 -16 -2 -22 -3 -17 -2 -11 -21 8 -22 11 0 12 -2 4 -6 -7 -3 -10 -10 -5 -17
4 -7 0 -4 -9 6 -9 10 -18 15 -20 11 -6 -11 -2 -54 6 -78 6 -15 4 -15 -6 3 -8
12 -17 20 -21 16 -4 -4 -2 -12 3 -19 7 -8 5 -12 -5 -12 -8 0 -12 4 -9 8 2 4 0
10 -6 14 -5 3 -10 2 -10 -3 0 -5 -13 -9 -30 -10 -24 0 -27 2 -17 13 9 10 15
10 26 1 12 -9 13 -8 6 3 -5 9 -4 12 3 7 18 -11 21 8 5 29 -12 16 -14 16 -10 3
3 -10 2 -20 -3 -23 -6 -4 -10 -1 -10 5 0 6 -12 -2 -26 -19 -14 -17 -31 -31
-37 -31 -8 0 -7 4 1 12 15 15 15 28 1 28 -5 0 -8 -4 -4 -9 6 -11 -12 -25 -37
-26 -13 -1 -17 3 -12 17 3 10 0 18 -6 18 -6 0 -8 -4 -5 -10 3 -5 0 -11 -7 -11
-7 -1 -20 -2 -28 -3 -8 0 -20 8 -27 19 -7 11 -12 15 -13 10 0 -6 -9 -11 -20
-12 -11 -1 -18 2 -15 7 3 5 1 11 -4 14 -5 4 -8 -2 -7 -11 2 -13 11 -18 30 -17
16 1 25 -3 23 -10 -2 -6 -14 -11 -27 -11 -13 0 -25 -6 -28 -12 -5 -16 10 -17
26 -1 9 9 12 9 12 -2 0 -13 2 -13 11 0 8 12 9 10 4 -9 -5 -17 -4 -22 5 -16 9
6 11 4 5 -5 -6 -10 -11 -10 -20 3 -13 18 -30 24 -20 7 4 -6 1 -9 -7 -8 -7 2
-12 -2 -11 -9 2 -9 -4 -10 -21 -3 -17 6 -26 5 -29 -3 -2 -7 -8 -8 -13 -4 -12
11 15 26 37 20 11 -3 19 0 19 6 0 7 -5 9 -10 6 -13 -8 -8 18 5 27 5 4 6 11 1
15 -5 4 -11 2 -13 -5 -3 -6 -9 -10 -14 -7 -5 4 -6 -1 -3 -9 9 -25 -12 -19 -25
7 -11 22 -11 22 -5 -3 6 -22 5 -23 -9 -11 -9 7 -15 17 -12 21 3 5 1 11 -4 14
-10 7 -9 -13 2 -31 4 -7 -1 -18 -14 -27 -12 -8 -18 -19 -14 -26 5 -8 13 -6 26
6 11 10 19 12 19 6 0 -7 -4 -12 -9 -12 -10 0 -7 -32 5 -53 4 -6 -4 0 -19 16
-25 26 -46 35 -48 20 0 -5 -2 -17 -5 -28 -2 -11 -5 -36 -8 -57 l-4 -36 38 2
c22 2 37 -1 34 -6 -4 -5 -12 -7 -20 -4 -14 6 -20 -9 -6 -17 4 -2 2 -2 -5 -1
-6 2 -14 -4 -17 -13 -6 -14 -9 -14 -31 1 -15 10 -26 12 -30 6 -4 -6 -1 -9 7
-8 7 2 12 -3 10 -11 -2 -8 3 -11 11 -8 8 3 27 -11 47 -34 17 -21 37 -36 42
-32 7 4 8 1 4 -6 -6 -9 -13 -8 -27 5 -21 19 -26 6 -6 -15 9 -11 9 -13 0 -7 -7
4 -13 3 -13 -2 0 -17 13 -22 28 -9 13 9 14 9 8 0 -4 -7 -16 -18 -26 -23 -16
-8 -18 -8 -14 5 4 8 1 15 -6 15 -9 0 -9 4 1 17 8 10 9 14 2 10 -8 -5 -11 -1
-10 12 0 11 5 17 11 14 5 -3 6 -1 2 6 -4 6 -11 9 -16 6 -5 -3 -10 3 -12 12 -3
15 -5 14 -10 -4 -3 -12 -3 -22 1 -21 19 2 24 -3 11 -12 -13 -9 -13 -11 0 -20
8 -5 11 -10 5 -10 -5 0 -4 -5 3 -12 8 -8 8 -17 1 -30 -11 -21 3 -59 15 -39 4
6 2 11 -3 11 -6 0 -11 5 -11 10 0 18 14 10 35 -18 15 -21 15 -24 2 -13 -20 16
-23 2 -5 -18 8 -9 8 -11 2 -8 -12 7 -29 -21 -19 -31 3 -3 5 -1 5 5 0 5 7 10
16 10 13 0 12 -4 -5 -16 -20 -15 -20 -17 -4 -40 9 -14 12 -21 6 -18 -6 4 -14
0 -17 -9 -4 -9 -9 -14 -13 -11 -3 4 0 13 7 22 7 8 8 15 4 15 -5 0 -14 -8 -21
-18 -9 -15 -7 -21 9 -31 16 -10 18 -10 13 0 -5 8 -4 10 3 5 7 -4 12 -2 12 5 0
7 3 9 6 6 4 -4 1 -13 -6 -22 -15 -18 0 -20 19 -2 11 10 13 9 7 -1 -4 -7 -25
-21 -46 -32 -21 -11 -42 -25 -46 -32 -6 -10 -4 -11 7 0 18 17 34 15 19 -3 -6
-8 -10 -20 -8 -27 3 -7 -3 -19 -11 -28 -9 -8 -12 -12 -7 -7 14 10 28 9 21 -3
-3 -5 -1 -10 5 -10 6 0 8 -5 5 -10 -4 -6 -11 -8 -16 -5 -10 7 -1 -23 12 -41 5
-6 0 -20 -12 -32 -11 -12 -15 -22 -9 -22 6 0 13 6 16 14 3 8 13 12 22 9 10 -3
13 -1 7 4 -16 13 -17 34 -3 52 12 14 11 15 -4 2 -10 -7 -18 -10 -18 -6 0 5 8
17 18 28 9 11 11 17 4 13 -6 -4 -12 -2 -12 3 0 6 7 11 16 11 11 0 14 -5 10
-16 -4 -9 -1 -24 6 -32 9 -11 9 -14 1 -9 -15 9 -14 -32 1 -52 8 -11 8 -13 -1
-8 -14 9 -14 -32 0 -50 6 -9 5 -18 -3 -28 -15 -18 1 -20 19 -2 11 10 13 9 7
-1 -4 -7 -25 -21 -46 -32 -21 -11 -42 -25 -46 -32 -6 -10 -4 -11 7 0 18 17 34
15 19 -3 -6 -8 -10 -20 -8 -27 3 -7 -3 -19 -11 -28 -9 -8 -12 -12 -7 -7 14 10
28 9 21 -3 -3 -5 -1 -10 5 -10 6 0 8 -5 5 -10 -4 -6 -11 -8 -16 -5 -10 7 -1
-23 12 -41 5 -6 0 -20 -12 -32 -11 -12 -15 -22 -9 -22 6 0 13 6 16 14 3 8 13
12 22 9 10 -3 13 -1 7 4 -16 13 -17 34 -3 52 12 14 11 15 -4 2 -23 -17 -23 -3
-1 22 10 11 12 17 5 13 -6 -4 -12 -2 -12 3 0 6 7 11 16 11 11 0 14 -5 10 -16
-4 -9 -1 -24 6 -32 9 -11 9 -14 1 -9 -15 9 -14 -32 1 -52 8 -11 8 -13 -1 -8
-14 9 -14 -32 0 -50 9 -12 -2 -18 -25 -14 -14 2 -9 -8 18 -39 15 -16 31 -27
37 -23 6 4 7 1 3 -6 -6 -9 -13 -8 -27 5 -21 19 -26 6 -6 -15 9 -11 9 -13 0 -7
-7 4 -13 3 -13 -2 0 -17 13 -22 28 -9 13 9 14 9 8 0 -4 -7 -16 -18 -26 -23
-16 -8 -18 -8 -14 5 4 8 1 15 -6 15 -9 0 -9 4 1 17 8 10 9 14 2 10 -8 -5 -11
-1 -10 12 0 11 5 17 11 14 5 -3 6 -1 2 6 -4 6 -11 9 -16 6 -5 -3 -10 3 -12 12
-3 15 -5 14 -10 -4 -3 -12 -3 -22 1 -21 19 2 24 -3 11 -12 -13 -9 -13 -11 0
-20 8 -5 11 -10 5 -10 -5 0 -4 -5 3 -12 8 -8 8 -17 1 -30 -11 -21 3 -59 15
-39 4 6 2 11 -3 11 -6 0 -11 5 -11 10 0 18 14 10 35 -18 15 -21 15 -24 2 -13
-20 16 -23 2 -4 -18 7 -9 7 -11 1 -8 -12 7 -29 -21 -19 -31 3 -3 5 -1 5 5 0 5
7 10 16 10 13 0 12 -4 -5 -16 -20 -15 -20 -17 -4 -40 9 -14 11 -21 5 -17 -7 4
-12 1 -12 -8 0 -8 6 -16 13 -19 6 -3 2 -4 -10 -4 -25 1 -30 16 -11 35 7 7 8
12 2 12 -6 0 -16 -12 -23 -26 -8 -19 -17 -25 -31 -21 -12 3 -17 1 -14 -5 3 -5
16 -7 28 -4 17 4 22 1 22 -14 0 -15 -5 -19 -21 -15 -20 6 -20 6 0 -7 26 -17
32 -43 8 -34 -17 6 -17 5 0 -8 18 -14 24 -32 7 -21 -19 11 -51 14 -44 4 3 -6
8 -8 11 -5 9 9 44 -14 38 -25 -4 -5 -10 -7 -15 -4 -5 3 -11 2 -14 -3 -5 -8 1
-10 43 -14 11 -1 18 -5 15 -9 -2 -4 2 -10 8 -12 10 -4 10 -7 0 -15 -8 -5 -13
-13 -12 -18 1 -5 -4 -10 -12 -12 -9 -2 -8 0 2 7 8 6 10 11 4 11 -7 0 -20 -8
-31 -17 -10 -10 -14 -15 -9 -10 17 13 29 8 16 -8 -6 -8 -10 -20 -8 -27 3 -7
-2 -18 -10 -24 -16 -12 -9 -34 11 -34 7 0 6 4 -3 10 -8 5 -11 12 -7 16 4 4 15
1 23 -8 15 -15 15 -17 -5 -27 -12 -7 -27 -9 -33 -5 -7 4 -8 3 -4 -5 5 -7 16
-9 29 -5 19 6 20 5 8 -9 -7 -9 -10 -24 -7 -33 5 -12 2 -15 -11 -10 -12 4 -11
0 5 -12 13 -10 19 -21 15 -26 -4 -4 -8 -15 -8 -24 0 -11 -8 -17 -22 -16 -12 0
-19 -4 -16 -9 3 -5 15 -6 27 -3 17 4 22 1 22 -14 0 -15 -5 -19 -21 -15 -20 6
-20 6 0 -7 26 -17 32 -43 8 -34 -17 6 -17 5 -1 -8 19 -14 25 -32 8 -21 -19 11
-51 14 -44 4 3 -6 8 -8 11 -5 10 10 42 -14 37 -27 -6 -17 55 -89 69 -80 6 4 7
1 3 -6 -6 -9 -13 -8 -27 5 -21 19 -26 6 -7 -15 10 -11 10 -13 1 -7 -7 4 -13 3
-13 -2 0 -17 13 -22 28 -9 13 9 14 9 8 0 -4 -7 -16 -18 -26 -23 -16 -8 -18 -8
-14 5 4 8 1 15 -6 15 -9 0 -9 4 1 17 8 10 9 14 2 10 -8 -5 -11 -1 -10 12 0 11
5 17 11 14 5 -3 6 -1 2 6 -4 6 -11 9 -16 6 -5 -3 -10 3 -12 12 -3 15 -5 14
-10 -4 -3 -12 -3 -22 1 -21 19 2 24 -3 11 -12 -13 -9 -13 -11 0 -20 8 -5 11
-10 5 -10 -5 0 -4 -5 3 -12 8 -8 8 -17 1 -30 -11 -21 3 -59 15 -39 4 6 2 11
-3 11 -6 0 -11 5 -11 10 0 18 14 10 35 -18 15 -21 15 -24 2 -13 -20 16 -23 2
-4 -18 7 -9 7 -11 1 -8 -12 7 -29 -21 -19 -31 3 -3 5 -1 5 5 0 5 7 10 16 10
13 0 12 -4 -5 -16 -20 -15 -20 -17 -4 -40 9 -14 12 -21 5 -18 -6 4 -13 -2 -17
-13 -4 -11 -11 -18 -16 -14 -6 4 -3 14 7 25 9 10 12 19 7 19 -12 0 -27 -29
-24 -44 1 -5 -6 -6 -16 -2 -12 4 -10 0 6 -12 15 -12 20 -22 13 -26 -13 -8 5
-56 20 -56 5 0 6 5 3 10 -3 6 -1 10 5 10 6 0 8 5 4 11 -4 8 -9 7 -15 -2 -6
-10 -8 -8 -7 7 1 11 8 21 15 21 6 0 10 -4 7 -9 -3 -4 0 -8 5 -8 18 0 13 -18
-11 -42 -21 -21 -22 -21 -29 -2 -5 14 -8 15 -8 4 -1 -9 5 -22 12 -29 10 -11 9
-13 -5 -8 -10 3 -20 1 -24 -5 -4 -6 -3 -8 4 -4 5 3 12 0 14 -6 6 -18 40 -16
56 2 11 13 11 11 2 -7 -5 -12 -18 -27 -28 -32 -13 -8 -14 -10 -2 -11 13 0 13
-1 0 -10 -10 -7 -11 -10 -2 -11 27 -3 31 -4 38 -11 3 -4 -3 -5 -15 -3 -11 3
-30 7 -41 9 -11 3 -20 0 -20 -6 0 -6 -3 -8 -6 -5 -9 8 16 38 25 32 4 -2 8 2 8
9 0 7 -10 19 -21 26 -17 10 -19 10 -9 -1 15 -15 17 -29 5 -29 -5 0 -14 10 -21
22 -8 17 -10 18 -5 3 4 -11 7 -37 8 -57 0 -27 5 -38 16 -39 10 0 8 -3 -5 -8
-11 -5 -25 -6 -31 -4 -7 2 -15 0 -18 -6 -4 -6 -14 -7 -23 -4 -10 4 -14 2 -9
-5 3 -6 1 -14 -5 -18 -6 -4 -16 1 -21 10 -5 9 -14 16 -20 16 -7 0 -7 -5 1 -14
10 -12 9 -14 -6 -11 -10 2 -18 4 -18 5 0 1 -8 3 -19 5 -10 2 -23 8 -29 14 -18
18 -28 12 -15 -8 7 -11 16 -17 22 -14 5 4 6 1 1 -7 -6 -10 -11 -9 -22 5 -7 11
-13 14 -13 8 0 -7 -9 -11 -19 -10 -11 0 -17 5 -15 9 3 4 1 8 -5 8 -5 0 -12 -6
-14 -12 -4 -10 -6 -10 -6 0 -1 19 -1 22 2 20 1 -1 13 4 26 11 19 10 22 10 16
0 -5 -8 -4 -10 3 -5 7 4 12 11 12 15 0 11 -49 11 -56 0 -3 -5 -10 -9 -16 -9
-7 0 -6 6 2 15 9 10 9 15 1 15 -6 0 -11 -4 -11 -9 0 -10 -45 -5 -63 6 -14 9
-27 -20 -15 -34 6 -7 8 -14 4 -14 -3 -1 -10 -3 -16 -4 -5 -1 -14 -3 -20 -4 -6
-1 -10 -153 -10 -436 0 -283 3 -435 10 -435 6 0 10 -5 10 -11 0 -5 -6 -7 -12
-3 -7 4 -6 -1 3 -12 9 -10 19 -26 22 -34 5 -13 6 -13 6 0 1 9 -4 21 -11 28 -8
8 -8 12 -1 12 6 0 16 -7 23 -15 7 -8 20 -14 29 -14 13 1 13 2 -2 6 -27 7 -20
19 13 19 16 -1 35 -7 41 -13 10 -10 16 -9 31 4 19 17 26 5 7 -14 -9 -9 -7 -11
7 -9 11 2 18 10 16 19 -1 9 4 14 12 13 20 -3 33 -16 16 -16 -7 0 -10 -3 -7 -7
4 -3 16 2 27 12 22 20 28 8 7 -15 -6 -7 3 -3 22 10 l33 23 -7 -24 c-8 -27 -3
-24 13 7 10 19 8 20 -36 19 -26 -1 -50 4 -54 9 -5 8 -8 8 -8 0 0 -11 -69 -12
-87 -1 -6 4 -15 2 -19 -4 -4 -8 -9 -7 -15 2 -6 10 -9 10 -9 2 0 -7 -9 -10 -21
-8 -25 5 -38 15 -20 15 7 0 9 5 5 13 -6 9 -4 9 7 1 17 -13 62 -16 54 -4 -6 10
15 8 33 -4 7 -4 19 -2 28 5 8 6 17 9 21 5 3 -3 1 -6 -6 -6 -7 0 -10 -4 -6 -10
3 -5 12 -7 20 -4 8 4 12 11 9 16 -4 6 5 3 19 -7 25 -16 26 -16 42 12 14 25 15
25 9 4 l-6 -24 33 22 c26 17 29 18 12 3 -24 -21 -19 -40 4 -20 24 20 52 17 47
-5 -2 -13 1 -17 11 -13 9 3 12 0 8 -10 -4 -11 -9 -12 -19 -3 -7 6 -19 7 -25 3
-8 -5 -10 -3 -4 7 6 11 5 12 -5 2 -10 -9 -10 -15 -2 -26 7 -8 8 -18 4 -23 -4
-5 3 0 15 10 20 16 23 17 29 3 7 -19 44 -18 44 1 0 12 -3 12 -17 1 -14 -12
-16 -12 -8 0 6 10 4 12 -6 6 -12 -8 -12 -6 0 8 10 13 17 15 27 6 16 -13 19 2
3 18 -7 7 -6 12 4 16 11 4 13 -3 11 -29 -2 -27 0 -33 10 -25 9 7 17 5 29 -9 9
-11 12 -20 6 -20 -5 0 -8 -4 -5 -8 3 -5 -2 -9 -10 -9 -9 0 -11 4 -5 10 11 11
3 39 -9 32 -5 -3 -7 -20 -4 -37 3 -30 3 -31 -14 -15 -15 16 -15 19 -2 27 8 5
11 10 5 10 -5 0 -17 -4 -24 -9 -12 -8 -11 -13 10 -30 13 -11 19 -20 13 -21 -5
0 -16 6 -24 13 -12 10 -12 9 0 -6 7 -10 19 -16 26 -13 7 3 16 1 19 -4 4 -6 1
-10 -6 -10 -7 0 -9 -8 -6 -21 4 -16 2 -19 -11 -15 -10 4 -8 -1 6 -12 18 -14
20 -20 10 -31 -10 -11 -10 -12 -1 -7 18 10 16 -9 -2 -24 -8 -7 -22 -10 -30 -6
-10 3 -14 2 -9 -5 3 -6 16 -8 28 -5 17 4 22 1 22 -14 0 -15 -5 -19 -21 -15
-20 6 -20 6 0 -7 26 -17 32 -43 8 -34 -16 5 -16 4 -3 -6 17 -14 20 -43 5 -43
-5 0 -9 4 -7 10 2 5 0 6 -4 2 -24 -24 -6 -42 23 -24 7 5 13 4 13 -2 0 -5 -8
-15 -18 -20 -9 -6 -12 -11 -6 -11 5 0 15 5 20 10 8 8 15 6 25 -6 12 -16 12
-17 -3 -11 -10 3 -20 1 -24 -6 -4 -7 -4 -9 1 -5 4 4 17 3 28 -3 12 -7 17 -7
13 -1 -3 6 0 13 6 15 9 4 9 6 -2 6 -10 1 -8 6 8 17 22 15 32 41 10 28 -7 -4
-8 -3 -4 5 8 12 26 6 26 -9 0 -5 -6 -15 -13 -22 -15 -17 -20 -58 -6 -58 5 0 7
-4 4 -10 -3 -5 -2 -10 4 -10 5 0 13 4 16 10 3 5 11 10 17 10 6 0 1 -12 -13
-27 -18 -20 -19 -24 -4 -13 11 8 25 22 32 30 15 18 17 6 3 -23 -9 -20 -9 -20
2 -3 7 11 21 27 30 37 9 9 14 20 11 22 -7 8 -34 -4 -29 -12 6 -9 -60 -8 -70 2
-4 4 -2 7 5 7 7 0 9 5 6 10 -3 6 -1 10 5 10 7 0 10 -7 7 -14 -4 -10 -1 -13 8
-9 8 3 12 10 8 17 -4 7 -2 7 7 -1 9 -8 19 -9 30 -3 13 7 21 5 30 -5 6 -7 18
-11 26 -8 8 3 14 0 14 -7 0 -6 5 -8 10 -5 6 4 8 11 5 16 -3 5 1 6 10 2 13 -5
14 -7 3 -14 -9 -6 -6 -9 10 -9 13 0 21 -4 17 -9 -9 -15 30 -32 43 -19 8 8 15
8 26 -1 8 -7 20 -10 25 -7 5 4 12 2 15 -3 4 -5 -2 -12 -11 -15 -15 -4 -15 -5
2 -4 45 1 51 -1 35 -13 -13 -9 -13 -10 0 -6 8 2 13 11 11 18 -2 8 -4 19 -5 26
-1 7 -6 16 -11 20 -4 4 -5 -2 -2 -15 4 -19 3 -21 -8 -12 -14 12 -10 40 7 40 5
0 7 4 3 9 -3 5 -1 12 4 16 6 3 8 -4 6 -15 -2 -12 2 -23 11 -27 9 -3 12 -12 9
-24 -5 -14 -2 -17 9 -13 9 3 13 11 9 17 -3 6 -1 7 6 3 6 -4 9 -11 6 -16 -3 -5
-1 -12 5 -15 8 -5 7 -12 -2 -23 -11 -13 -11 -15 3 -10 9 3 22 2 30 -4 11 -8
10 -9 -5 -4 -12 4 -17 2 -13 -7 6 -15 -12 -41 -31 -45 -8 -1 -12 3 -9 10 2 7
9 12 14 11 5 -1 10 4 10 12 0 8 -5 11 -10 8 -6 -3 -7 -1 -3 5 4 7 2 12 -3 12
-6 0 -11 5 -11 11 0 5 4 8 8 5 5 -3 9 1 9 9 0 23 -13 18 -25 -11 -7 -14 -8
-23 -3 -20 4 3 9 -9 9 -27 0 -17 2 -45 4 -62 l3 -30 477 -2 c409 -1 479 1 495
14 10 8 12 12 6 8 -7 -3 -13 -1 -13 4 0 6 6 11 13 11 8 0 7 4 -3 10 -8 5 -11
10 -6 10 6 0 5 5 -2 12 -9 9 -8 16 5 30 13 15 19 16 32 5 14 -11 14 -10 2 6
-9 12 -17 14 -26 7 -6 -5 -15 -7 -18 -3 -4 3 1 12 11 20 9 8 11 12 5 8 -7 -3
-13 -1 -13 5 0 6 -4 9 -9 6 -5 -3 -7 -19 -6 -36 1 -16 -1 -30 -5 -30 -9 0 -7
-28 4 -53 14 -30 -2 -31 -27 -1 -24 28 -24 29 -6 42 10 7 19 18 19 24 0 6 -6
6 -15 -2 -9 -7 -18 -10 -22 -6 -3 3 -1 6 5 6 6 0 9 8 6 18 -5 14 -4 15 5 2 6
-8 11 -13 12 -10 0 3 2 15 5 27 2 12 -1 25 -6 28 -6 3 -10 12 -10 18 0 7 5 4
11 -5 5 -10 15 -18 21 -18 6 0 5 7 -3 17 -13 16 -12 17 3 5 11 -9 18 -10 23
-2 3 5 0 10 -7 10 -7 1 0 8 16 16 18 10 32 12 38 6 11 -11 48 -4 48 10 0 5 -5
6 -12 2 -7 -4 -8 -3 -4 4 4 7 1 12 -8 12 -10 0 -13 -6 -9 -17 7 -19 5 -18 -15
9 -11 14 -9 16 18 14 24 -2 30 2 31 18 1 20 2 18 15 -23 3 -10 7 -11 19 -1 8
7 12 16 9 21 -3 5 2 6 11 2 12 -4 13 -8 5 -13 -8 -5 -7 -9 4 -13 9 -4 16 -12
16 -18 0 -8 -4 -8 -15 1 -9 7 -15 8 -15 2 0 -5 6 -12 13 -14 17 -7 38 2 31 13
-8 14 6 10 23 -6 8 -8 19 -13 24 -10 5 4 9 1 9 -6 0 -7 3 -9 6 -6 4 4 2 12 -4
19 -7 9 -5 17 6 28 14 13 15 12 9 -3 -3 -9 -2 -19 3 -22 5 -3 7 -12 4 -19 -3
-8 -1 -17 5 -21 7 -4 8 1 4 12 -3 10 -3 15 2 11 15 -14 32 12 29 41 -3 22 1
30 16 34 11 3 19 2 18 -2 -2 -18 3 -32 11 -27 4 3 18 -5 30 -17 15 -17 31 -23
59 -22 20 1 40 -3 44 -9 4 -6 6 -1 6 10 -2 17 -8 20 -40 19 -20 -1 -35 2 -32
6 2 4 28 7 57 6 48 -2 52 -4 50 -25 -2 -13 1 -21 7 -17 6 3 10 14 10 23 0 15
2 15 11 2 9 -13 10 -13 6 0 -2 8 -10 14 -16 13 -20 -5 -12 15 9 20 11 3 18 1
15 -4 -3 -5 -1 -18 5 -29 8 -16 15 -18 29 -11 13 7 24 6 38 -4 18 -13 22 -13
27 1 3 8 11 12 17 8 8 -4 7 -9 -2 -15 -8 -5 -9 -9 -3 -9 13 0 44 32 44 46 0 5
-4 3 -8 -4 -6 -9 -12 -6 -20 12 -7 16 -8 27 -1 31 5 4 9 3 8 -2 -3 -18 1 -36
8 -30 3 4 12 2 20 -4 10 -9 11 -15 2 -26 -7 -7 -9 -16 -5 -20 3 -3 6 -1 6 6 0
7 4 10 9 6 6 -3 8 -15 6 -27 -3 -11 -1 -17 3 -14 4 4 7 12 7 17 0 5 4 9 9 8
10 -1 26 21 26 36 0 6 -4 4 -9 -3 -6 -11 -10 -10 -15 4 -4 11 -1 21 9 27 11 6
13 12 6 21 -7 8 -5 12 8 12 12 0 17 -6 13 -18 -2 -10 -9 -18 -14 -18 -5 0 -6
-5 -3 -11 5 -7 13 -4 26 7 10 9 16 20 14 24 -3 4 2 11 11 14 15 6 15 4 1 -18
-9 -13 -13 -26 -10 -29 8 -8 33 19 33 35 0 10 3 9 10 -2 6 -9 5 -17 -2 -21 -7
-4 -7 -9 0 -13 6 -3 13 -2 17 3 3 6 13 7 23 4 14 -5 15 -3 5 8 -7 7 -13 18
-13 23 0 6 7 0 16 -12 8 -12 20 -19 26 -16 7 4 8 2 4 -4 -4 -7 -1 -12 8 -12
10 0 13 6 10 18 -5 15 -4 15 8 1 13 -16 19 -19 39 -19 5 0 7 -5 4 -10 -4 -7
-12 -7 -25 0 -13 7 -21 7 -25 0 -3 -5 -3 -10 2 -11 4 0 -1 -4 -12 -9 -16 -7
-17 -9 -3 -9 9 -1 20 4 23 9 3 5 11 10 18 10 8 0 8 -3 -1 -12 -7 -7 -12 -16
-12 -21 0 -4 11 4 24 18 14 15 27 22 30 16 4 -6 14 -7 23 -4 10 4 14 2 10 -4
-3 -5 0 -10 8 -10 12 0 12 4 -2 19 -9 10 -19 14 -22 9 -4 -5 -20 4 -38 19 -25
23 -28 28 -13 27 10 -1 17 -4 14 -9 -9 -14 32 -28 46 -15 10 9 11 9 6 0 -4 -8
-1 -13 7 -13 8 0 18 -7 21 -16 6 -17 26 -10 26 9 0 7 -4 6 -11 -3 -9 -13 -10
-13 -6 0 2 8 9 14 15 13 6 -2 14 7 17 18 4 12 13 18 20 15 8 -3 16 -2 18 2 2
4 3 2 1 -5 -5 -22 10 -23 23 -1 13 21 13 21 8 2 -3 -13 -1 -21 7 -21 7 0 22
-4 33 -8 18 -6 18 -5 -3 14 -21 18 -21 20 -3 18 11 0 19 -6 18 -12 -1 -5 4 -9
11 -7 8 1 11 -2 7 -8 -9 -14 27 -9 38 5 5 6 7 4 4 -5 -2 -8 -10 -14 -16 -13
-6 2 -11 -1 -11 -6 0 -10 -21 -8 -52 4 -12 5 -18 3 -18 -6 0 -7 3 -9 6 -6 11
11 44 -12 38 -27 -3 -7 3 -19 13 -26 15 -12 16 -12 6 0 -7 8 -13 19 -13 25 1
5 10 -1 21 -14 17 -21 21 -22 37 -9 24 20 42 17 59 -12 14 -23 14 -24 -1 -6
-18 22 -50 31 -43 13 3 -7 11 -11 18 -9 8 2 11 0 7 -4 -4 -4 0 -13 10 -20 10
-8 12 -13 5 -14 -7 0 -13 -4 -13 -10 0 -5 7 -7 16 -3 13 5 15 2 9 -17 -4 -13
-3 -20 2 -17 5 4 10 0 10 -8 0 -8 -8 -12 -20 -9 -23 4 -36 14 -19 14 7 0 12 4
12 10 0 5 -3 9 -7 9 -19 -3 -23 2 -13 21 8 15 7 19 -2 16 -7 -1 -10 -1 -5 1 4
3 4 9 1 15 -4 6 -10 5 -16 -3 -7 -10 -8 -9 -3 6 5 16 4 17 -6 8 -10 -10 -9
-16 1 -29 18 -21 22 -47 6 -41 -8 3 -12 -7 -12 -28 0 -28 3 -32 17 -25 9 5 20
6 24 2 5 -4 5 -1 0 7 -5 9 -4 12 3 7 17 -10 15 -16 -10 -25 -14 -6 169 -9 459
-10 475 0 482 1 470 20 -6 10 -15 19 -20 19 -4 0 -6 -4 -2 -9 3 -5 1 -12 -4
-15 -5 -4 -8 1 -7 10 1 8 8 19 15 24 7 4 9 10 4 13 -9 6 -45 -17 -38 -25 3 -2
-2 -5 -10 -5 -11 0 -12 4 -4 13 6 7 8 18 5 23 -4 5 -2 13 4 16 6 4 9 3 8 -2
-2 -4 2 -8 7 -8 6 0 10 10 9 22 -1 12 3 20 8 17 4 -3 6 -10 3 -15 -4 -5 -1 -9
4 -9 6 0 11 11 11 24 0 14 4 27 9 30 5 4 7 -6 5 -21 -3 -16 -5 -33 -6 -40 -1
-7 -6 -9 -11 -6 -6 3 -7 1 -3 -6 4 -6 12 -9 17 -6 5 4 9 2 9 -4 0 -5 -5 -11
-11 -13 -7 -2 -5 -9 5 -17 14 -12 16 -12 10 4 -5 11 -3 16 3 12 11 -7 11 28 0
39 -12 13 -7 24 11 24 16 1 16 1 -1 11 -9 6 -15 14 -12 19 11 18 -19 22 -32 5
-7 -11 -13 -15 -13 -9 1 19 28 46 35 34 4 -6 14 -9 22 -6 11 5 13 1 8 -15 -5
-16 -3 -20 6 -17 8 3 13 13 11 23 -2 10 1 14 7 10 7 -4 9 1 5 12 -5 16 -4 16
10 -1 13 -17 16 -17 16 -4 0 9 -5 18 -12 20 -9 3 -9 6 0 11 6 5 17 -4 26 -20
8 -15 15 -23 16 -18 0 6 -7 21 -16 33 -8 12 -11 22 -6 22 5 0 16 -10 24 -22
11 -17 16 -19 23 -8 5 9 4 11 -3 6 -7 -4 -12 -2 -12 4 0 12 37 9 58 -3 7 -5
10 -12 7 -17 -3 -4 5 -6 17 -2 l22 5 -21 8 c-13 5 -20 15 -19 26 2 10 1 12 -1
4 -4 -12 -6 -12 -14 0 -7 11 -9 11 -9 1 0 -7 -4 -11 -8 -8 -19 11 -67 15 -78
5 -21 -17 -24 18 -4 36 11 10 17 22 13 28 -4 6 -1 7 6 2 9 -5 7 -13 -9 -31
l-22 -23 28 3 c15 2 30 9 32 16 3 8 0 10 -8 5 -9 -6 -11 -4 -5 5 6 10 12 7 24
-9 11 -14 23 -20 34 -15 9 3 15 10 12 14 -3 5 -1 12 5 15 6 4 9 3 8 -2 -2 -4
2 -8 7 -8 6 0 9 4 7 8 -1 5 2 6 8 2 8 -5 7 -11 -1 -21 -9 -11 -9 -14 1 -14 10
0 10 -3 0 -15 -11 -13 -10 -14 4 -9 9 3 15 14 14 22 -2 9 3 17 10 17 7 0 17 7
22 15 5 8 13 11 17 6 4 -5 2 -11 -5 -13 -6 -3 -10 -8 -8 -12 3 -4 0 -13 -6
-21 -8 -12 -8 -11 -3 5 5 16 4 18 -7 7 -10 -10 -8 -16 10 -34 16 -16 25 -19
33 -11 8 8 7 13 -2 18 -8 5 -10 4 -5 -3 4 -7 3 -12 -3 -12 -19 0 -21 18 -3 40
16 20 20 21 25 7 4 -12 1 -15 -11 -11 -14 5 -15 4 -2 -5 24 -17 33 -13 28 14
-3 13 -1 22 3 19 13 -8 11 10 -4 26 -10 12 -9 12 4 2 9 -6 19 -8 24 -4 4 4 3
-3 -4 -15 -15 -29 -14 -34 4 -27 8 3 14 9 13 12 -2 23 4 33 17 29 18 -7 30 9
13 16 -10 4 -10 8 2 16 8 5 18 7 24 4 5 -4 7 1 3 11 -4 9 -3 15 2 12 5 -3 11
1 15 9 3 8 1 17 -4 20 -4 3 -10 1 -12 -5 -2 -6 -9 -1 -16 11 -8 12 -9 18 -4
15 5 -3 17 3 26 13 11 13 14 21 7 26 -6 3 -11 2 -11 -3 0 -5 -9 -12 -19 -15
-14 -3 -18 -1 -14 9 3 8 8 12 12 9 9 -5 36 26 36 42 0 6 -3 15 -7 19 -5 4 -8
2 -8 -5 0 -7 -5 -9 -11 -5 -11 7 13 26 36 30 6 0 16 2 23 2 6 1 12 7 12 13 0
8 -5 8 -15 -1 -12 -10 -18 -10 -30 0 -10 9 -15 9 -15 1 0 -6 -7 -11 -16 -11
-12 0 -9 6 10 21 25 19 27 39 5 39 -6 0 -7 -5 -3 -12 4 -7 3 -8 -5 -4 -15 10
-3 29 15 22 8 -3 14 -1 14 4 0 6 -6 10 -12 10 -7 0 -5 5 5 11 9 6 15 14 12 20
-4 5 -1 9 5 9 6 0 8 -11 5 -27 -13 -61 -13 -84 0 -73 7 5 10 21 7 35 -3 20 -1
24 11 19 10 -3 13 -12 10 -22 -7 -18 -5 -17 17 11 7 10 9 17 4 16 -21 -4 -35
2 -29 11 4 6 11 7 17 4 6 -4 6 1 -1 14 -8 16 -7 21 5 26 12 4 15 2 11 -9 -4
-8 -1 -17 6 -21 7 -4 9 -4 5 1 -4 4 -2 17 4 29 7 11 11 25 10 29 -1 5 2 6 7 3
12 -8 10 -46 -2 -46 -4 0 -5 -5 -2 -11 9 -13 15 -7 20 21 5 24 -10 50 -27 50
-6 0 -7 -8 -4 -17 4 -10 4 -14 0 -11 -4 4 -16 1 -28 -7 -11 -8 -24 -15 -29
-15 -14 0 -1 54 14 58 8 2 10 0 4 -5 -17 -14 -18 -43 0 -37 8 3 13 10 10 14
-3 4 6 15 20 24 15 10 25 12 25 6 0 -6 5 -8 10 -5 6 4 8 10 5 15 -3 5 4 7 16
5 13 -3 28 0 36 6 9 8 13 8 13 0 0 -6 3 -10 8 -10 17 3 32 -2 32 -10 0 -4 -16
-7 -34 -6 -21 1 -32 -3 -29 -8 3 -6 1 -7 -4 -4 -6 4 -14 0 -17 -9 -8 -21 -7
-31 2 -18 18 27 45 32 68 11 13 -11 21 -25 17 -30 -3 -6 -1 -7 5 -3 13 8 5 36
-11 36 -15 0 0 13 18 16 17 2 38 -29 27 -40 -3 -4 2 -4 12 0 10 4 13 9 7 13
-12 8 -2 25 17 29 9 2 12 -5 8 -20 -3 -13 -3 -17 0 -10 3 6 10 12 15 12 6 0 8
-4 5 -8 -3 -5 1 -9 9 -9 8 0 11 5 8 10 -3 5 0 8 8 5 8 -3 14 -10 14 -16 0 -5
3 -13 7 -17 8 -9 5 16 -5 32 -5 8 -1 11 13 10 11 -1 20 -5 20 -9 0 -4 6 -5 14
-2 8 3 17 1 21 -5 3 -6 12 -11 18 -11 7 0 4 5 -5 11 -10 5 -18 14 -18 19 0 12
22 9 33 -5 5 -6 7 -4 5 4 -3 8 -19 16 -38 17 -26 2 -30 0 -20 -7 12 -9 12 -10
1 -7 -8 2 -16 15 -18 29 -2 17 -1 20 6 10 8 -12 12 -12 25 -2 8 7 21 11 28 8
8 -3 6 -6 -5 -6 -10 -1 -16 -5 -12 -11 3 -5 12 -7 20 -3 13 4 15 66 15 429 0
399 -1 423 -17 417 -15 -5 -14 -3 2 10 15 13 16 16 5 17 -13 0 -13 2 -1 9 11
7 12 13 3 23 -9 11 -9 18 1 28 10 12 9 12 -4 2 -9 -6 -20 -8 -24 -4 -5 4 -5 2
-1 -5 3 -6 2 -14 -4 -18 -5 -3 -10 -1 -10 4 0 6 -3 10 -7 10 -19 -3 -34 2 -29
9 2 4 -4 8 -14 8 -10 0 -17 -3 -14 -7 2 -4 -2 -9 -10 -12 -18 -7 -36 12 -29
32 4 14 3 14 -6 1 -6 -9 -7 -18 -1 -24 6 -6 10 -15 10 -20 -1 -6 -9 -1 -19 11
-16 19 -20 20 -25 7 -3 -9 -4 -20 0 -25 3 -5 -2 -9 -11 -9 -9 0 -13 -5 -10
-10 5 -8 11 -8 20 0 12 10 46 21 73 22 6 1 12 5 12 10 0 4 4 8 10 8 5 0 9 -5
7 -11 -1 -6 5 -14 13 -16 13 -4 13 -3 0 6 -18 13 -1 14 20 1 9 -5 19 -5 26 1
8 7 14 6 19 -1 3 -5 -1 -10 -10 -10 -9 0 -13 -4 -10 -10 3 -5 1 -18 -4 -27 -9
-16 -10 -15 -8 6 1 13 -4 26 -11 28 -7 3 -10 -1 -6 -11 3 -9 1 -16 -6 -16 -6
0 -8 5 -5 10 7 11 -23 9 -42 -3 -16 -10 -35 1 -27 15 5 7 2 8 -5 4 -7 -5 -10
-15 -7 -25 4 -11 2 -10 -10 4 -15 20 -15 20 -30 1 -8 -11 -14 -15 -14 -8 0 6
-9 9 -21 7 -16 -3 -18 -1 -10 9 6 7 7 16 3 20 -4 4 -1 6 7 4 7 -2 15 4 16 12
2 10 -5 16 -19 17 -11 1 -15 -1 -8 -4 6 -3 10 -9 7 -13 -3 -5 -12 -7 -20 -4
-8 4 -12 10 -9 16 3 5 -8 3 -24 -6 -42 -22 -52 -20 -23 4 13 11 19 20 13 20
-6 0 -17 -6 -24 -13 -7 -7 -18 -12 -24 -12 -16 0 -44 32 -36 40 4 5 2 5 -4 2
-6 -4 -20 1 -30 9 -19 15 -19 15 1 9 11 -3 16 -3 12 1 -4 4 -2 13 4 20 7 8 7
14 -1 19 -6 4 -9 1 -8 -6 2 -6 -3 -14 -11 -17 -8 -3 -11 0 -7 7 5 7 1 9 -11 4
-15 -6 -16 -4 -5 9 8 10 9 19 3 22 -13 8 -10 46 4 46 5 0 3 5 -5 10 -8 5 -19
10 -25 10 -5 0 -3 -5 5 -10 13 -9 13 -10 0 -10 -13 0 -13 -1 0 -10 10 -6 11
-10 3 -10 -7 0 -12 -3 -12 -7 3 -18 -2 -33 -10 -33 -6 0 -8 9 -6 20 4 23 2 24
-28 9 -20 -9 -20 -9 -5 4 10 8 15 17 11 21 -4 4 1 4 12 0 17 -7 18 -5 8 7 -9
12 -10 18 -1 27 8 8 7 13 -6 18 -15 6 -15 7 1 19 9 7 24 10 33 8 11 -4 11 -2
-2 8 -13 11 -15 18 -7 29 10 13 10 13 6 0 -3 -11 2 -16 16 -18 18 -1 19 1 7 9
-12 8 -12 12 -2 16 10 4 9 8 -5 18 -17 13 -17 14 -1 20 10 4 18 12 18 17 0 6
-7 4 -17 -3 -9 -8 -18 -12 -20 -11 -3 2 -8 0 -11 -4 -4 -4 -2 -4 4 -1 6 3 11
0 11 -8 0 -8 -5 -11 -11 -8 -6 3 -8 3 -4 -2 7 -7 -17 -65 -28 -65 -2 0 0 8 5
18 7 13 6 23 -2 31 -9 10 -9 11 4 6 10 -4 16 0 16 10 0 8 -5 15 -11 15 -6 0
-4 5 4 10 8 5 11 10 6 10 -5 0 -3 7 4 15 7 9 8 15 2 15 -5 0 -12 6 -15 13 -3
8 1 14 9 14 7 0 11 -3 10 -6 -2 -3 8 -7 22 -8 l27 -1 -24 12 c-19 10 -20 14
-8 19 10 4 14 13 10 28 -5 16 -3 20 6 14 8 -4 7 2 -3 17 -9 14 -13 27 -10 31
4 3 7 19 9 34 2 23 -2 29 -17 29 -16 0 -17 -2 -4 -11 13 -10 12 -13 -2 -23
-15 -10 -15 -11 3 -6 12 4 8 -2 -10 -14 -16 -10 -32 -17 -35 -14 -3 2 1 7 7 9
7 3 13 11 13 19 0 8 5 14 11 14 5 0 8 4 4 10 -3 5 -12 7 -20 3 -8 -3 -15 0
-15 7 0 6 4 9 9 5 5 -3 12 -1 15 4 4 5 -2 12 -11 14 -17 4 -17 5 0 6 9 0 17 6
17 12 0 5 -4 7 -10 4 -6 -4 -7 1 -3 11 5 13 3 15 -7 9 -9 -5 -11 -4 -6 4 4 6
12 9 17 5 15 -9 59 24 58 44 -1 16 -2 16 -6 -1 -2 -9 -9 -15 -14 -12 -5 3 -18
1 -29 -5 -16 -9 -19 -8 -13 6 4 11 3 15 -5 10 -6 -3 -14 -1 -18 5 -4 7 -3 9 3
6 12 -8 36 17 27 26 -4 3 -15 2 -25 -4 -15 -7 -17 -6 -13 6 3 8 9 13 13 10 4
-2 15 5 24 15 10 11 12 22 6 25 -5 4 -6 11 -3 17 4 6 -2 8 -17 4 -13 -3 -18
-3 -11 0 6 3 10 10 7 15 -4 5 2 6 12 2 15 -6 16 -4 6 8 -9 12 -10 18 -1 27 8
8 7 13 -6 18 -15 6 -15 8 4 21 11 8 18 18 16 22 -3 4 -1 13 4 20 5 9 7 3 7
-17 -1 -17 -6 -28 -12 -25 -5 4 -7 2 -2 -2 4 -5 17 -10 30 -12 21 -3 21 -3 3
10 -13 9 -15 16 -8 21 6 4 9 13 5 21 -3 9 1 15 8 15 7 0 5 6 -7 14 -18 14 -18
15 -1 21 9 4 17 12 17 17 0 7 -4 7 -12 0 -7 -6 -16 -10 -20 -9 -3 1 -10 -2
-15 -7 -4 -5 -3 -7 3 -3 6 3 11 0 11 -8 0 -8 -5 -11 -11 -8 -6 3 -8 3 -4 -2 7
-7 -17 -65 -28 -65 -2 0 0 8 5 18 7 13 6 23 -2 31 -9 10 -9 11 4 6 10 -4 16 0
16 10 0 8 -5 15 -11 15 -6 0 -4 5 4 10 8 5 11 10 6 10 -5 0 -3 7 4 15 7 9 8
15 2 15 -5 0 -12 6 -15 13 -3 8 1 14 9 14 7 0 11 -3 10 -6 -2 -3 8 -7 22 -8
l27 -1 -24 12 c-19 10 -20 14 -8 19 10 4 14 13 10 28 -5 16 -3 20 6 14 8 -4 7
2 -3 17 -9 14 -13 27 -10 31 4 3 7 19 9 34 2 23 -2 29 -17 29 -16 0 -17 -2 -4
-11 13 -10 12 -13 -2 -23 -15 -10 -15 -11 3 -6 12 4 8 -2 -10 -14 -16 -10 -32
-17 -35 -14 -3 2 1 7 7 9 7 3 13 11 13 19 0 8 5 14 11 14 5 0 8 4 4 10 -3 5
-12 7 -20 3 -8 -3 -15 0 -15 7 0 6 4 9 9 5 5 -3 12 -1 15 4 4 5 -2 12 -11 14
-17 4 -17 5 0 6 9 0 17 6 17 12 0 5 -4 7 -10 4 -6 -4 -7 1 -3 11 5 13 3 15 -7
9 -9 -5 -11 -4 -6 4 4 6 12 9 17 5 15 -9 59 24 58 44 -1 16 -2 16 -6 -1 -2 -9
-9 -15 -14 -12 -5 3 -18 1 -29 -5 -16 -9 -19 -8 -13 6 4 11 3 15 -5 10 -6 -3
-14 -1 -18 6 -4 7 -4 10 1 6 10 -10 37 11 29 23 -3 5 -13 5 -24 -1 -16 -8 -18
-8 -14 5 3 8 9 13 13 10 4 -2 15 5 24 15 10 11 12 22 6 25 -5 4 -6 11 -3 17 4
6 -2 8 -17 4 -13 -3 -18 -3 -11 0 6 3 10 10 7 15 -4 5 2 6 12 2 15 -6 16 -4 6
8 -9 12 -10 18 -1 27 8 8 7 13 -6 18 -15 6 -15 8 4 21 11 8 18 18 16 22 -3 4
-1 13 4 20 5 9 7 3 7 -17 -1 -17 -6 -28 -12 -25 -5 4 -7 2 -2 -2 4 -5 17 -10
30 -12 21 -3 21 -3 3 10 -13 9 -15 16 -8 21 6 4 9 13 5 21 -3 9 1 15 8 15 7 0
5 6 -7 14 -18 14 -18 15 -1 21 9 4 17 11 17 17 0 5 -6 6 -12 1 -7 -4 -16 -8
-20 -8 -3 0 -10 -4 -15 -9 -4 -5 -3 -7 3 -3 6 3 11 0 11 -8 0 -8 -5 -11 -11
-8 -6 3 -8 3 -4 -2 7 -7 -17 -65 -28 -65 -2 0 0 8 5 18 7 13 6 23 -2 31 -9 10
-9 11 4 6 10 -4 16 0 16 10 0 8 -5 15 -11 15 -6 0 -4 5 4 10 8 5 11 10 6 10
-5 0 -3 7 4 15 7 9 8 15 2 15 -5 0 -12 6 -15 13 -3 8 1 14 9 14 7 0 11 -3 10
-6 -2 -3 8 -7 22 -8 l27 -1 -24 12 c-19 10 -20 14 -8 19 10 4 14 13 10 28 -5
16 -3 20 6 14 8 -4 7 2 -3 17 -9 14 -13 27 -10 31 4 3 7 19 9 34 2 23 -2 29
-17 29 -16 0 -17 -2 -4 -11 13 -10 12 -13 -2 -23 -15 -10 -15 -11 3 -6 12 4 8
-2 -10 -14 -16 -10 -32 -17 -35 -14 -3 2 1 7 8 9 6 3 12 11 12 19 0 8 5 14 11
14 5 0 8 4 4 10 -3 5 -12 7 -20 3 -8 -3 -15 0 -15 7 0 6 4 9 9 5 5 -3 12 -1
15 4 4 5 -2 12 -11 14 -17 4 -17 5 0 6 9 0 17 6 17 12 0 5 -4 7 -10 4 -6 -4
-7 1 -3 11 5 13 3 15 -7 9 -9 -5 -11 -4 -6 4 4 6 12 9 17 5 15 -9 59 24 58 44
-1 16 -2 16 -6 -1 -2 -9 -9 -15 -14 -12 -5 3 -18 1 -29 -5 -16 -9 -19 -8 -13
6 4 11 3 15 -5 10 -6 -3 -14 -1 -18 6 -4 7 -4 10 1 6 10 -10 37 11 29 23 -3 5
-13 5 -24 -1 -16 -8 -18 -8 -14 5 3 8 9 13 13 10 4 -2 15 5 24 15 10 11 12 22
6 25 -5 4 -6 11 -3 17 4 6 -2 8 -17 4 -13 -3 -18 -3 -11 0 6 3 10 10 7 15 -4
5 2 6 12 2 15 -6 16 -4 6 8 -9 12 -10 18 -1 27 8 8 7 13 -6 18 -15 6 -15 8 4
21 11 8 18 18 16 22 -3 4 -1 13 4 20 5 9 7 3 7 -17 -1 -17 -6 -28 -12 -25 -5
4 -7 2 -2 -2 4 -5 17 -10 30 -12 21 -3 21 -3 3 10 -13 9 -15 16 -8 21 6 4 9
13 5 21 -3 9 1 15 8 15 7 0 5 6 -7 14 -18 14 -18 15 -1 21 9 4 17 11 17 17 0
5 -6 6 -12 1 -7 -4 -16 -8 -20 -8 -3 0 -10 -4 -15 -9 -4 -5 -3 -7 3 -3 6 3 11
0 11 -8 0 -8 -5 -11 -11 -8 -6 3 -8 3 -4 -2 7 -7 -17 -65 -28 -65 -2 0 0 8 5
18 7 13 6 23 -2 31 -9 10 -9 11 4 6 10 -4 16 0 16 10 0 8 -5 15 -11 15 -6 0
-4 5 4 10 8 5 11 10 6 10 -5 0 -3 7 4 15 7 9 8 15 2 15 -5 0 -12 6 -15 13 -3
8 1 14 9 14 7 0 11 -3 10 -6 -2 -3 8 -7 22 -8 l27 -1 -24 12 c-19 10 -20 14
-8 19 10 4 14 13 10 28 -5 16 -3 20 6 14 8 -4 7 2 -3 17 -9 14 -13 27 -10 31
4 3 7 19 9 34 2 23 -2 29 -17 29 -16 0 -17 -2 -4 -11 13 -10 12 -13 -2 -23
-15 -10 -15 -11 3 -6 12 4 8 -2 -10 -14 -16 -10 -32 -17 -35 -14 -3 2 1 7 8 9
6 3 12 11 12 19 0 8 5 14 11 14 5 0 8 4 4 10 -3 5 -12 7 -20 3 -8 -3 -15 0
-15 7 0 6 4 9 9 5 5 -3 12 -1 15 4 4 5 -2 11 -11 13 -15 3 -14 5 4 10 13 3 26
1 30 -4 4 -7 1 -8 -7 -3 -9 5 -11 4 -6 -3 5 -9 12 -8 26 0 13 9 16 15 8 19 -7
4 -15 6 -19 3 -4 -2 -12 3 -19 11 -7 8 -17 12 -23 8 -6 -3 -7 -1 -3 5 4 6 13
9 20 6 9 -3 13 2 11 18 -4 38 -5 39 -15 33 -5 -3 -6 -13 -3 -23 7 -19 4 -17
-17 13 -8 11 -10 17 -5 12 4 -4 17 1 28 10 11 10 17 13 14 7 -4 -7 0 -17 8
-24 8 -7 12 -17 8 -24 -11 -17 -12 -36 -2 -36 5 0 9 3 10 8 5 39 5 60 -2 56
-4 -2 -10 0 -13 5 -4 5 4 13 15 16 20 7 20 8 6 17 -13 7 -15 13 -7 28 6 10 6
21 1 24 -12 8 -20 -4 -14 -21 5 -13 2 -13 -15 -4 -17 9 -23 8 -31 -6 -6 -10
-11 -13 -11 -7 0 14 24 36 34 29 3 -3 2 0 -4 7 -7 9 -15 7 -32 -8 l-23 -19 19
23 c19 22 11 31 -12 12 -6 -6 -10 -7 -7 -3 3 3 -5 13 -16 21 -17 12 -23 12
-29 2 -6 -9 -10 -7 -15 9 -3 12 -11 19 -16 16 -5 -4 -9 1 -9 9 0 22 17 20 24
-2 6 -17 46 -26 46 -10 0 4 10 5 21 3 33 -7 35 -15 4 -15 -33 0 -28 -10 7 -15
12 -1 31 -6 41 -10 13 -5 17 -2 17 11 0 13 -3 15 -8 7 -5 -8 -13 -9 -22 -3
-13 9 -13 10 0 10 10 1 7 5 -8 13 -12 7 -20 16 -16 19 8 9 -18 4 -33 -5 -17
-10 -17 5 0 22 10 11 10 13 0 7 -8 -4 -13 -1 -13 8 0 9 -5 16 -12 16 -6 0 -8
-3 -5 -7 4 -3 2 -12 -4 -19 -13 -15 -42 -7 -32 10 3 6 -3 3 -14 -6 -28 -25
-40 -22 -17 5 19 22 19 22 -2 5 -19 -17 -21 -17 -39 0 -14 13 -16 13 -7 1 12
-16 7 -29 -10 -29 -5 0 -6 6 -2 13 5 8 2 8 -9 -2 -18 -15 -23 -26 -7 -16 6 3
10 1 10 -6 0 -8 4 -8 15 1 8 7 15 8 15 4 0 -5 -9 -15 -21 -22 -12 -8 -18 -9
-14 -3 3 6 3 11 -2 12 -4 0 -16 2 -25 4 -10 2 -18 -1 -18 -6 0 -5 -3 -8 -7 -7
-5 1 -24 -6 -43 -15 -26 -14 -30 -14 -16 -2 11 8 24 15 29 15 4 0 6 4 2 10 -3
5 -12 7 -19 4 -9 -3 -17 3 -21 16 -5 15 -13 20 -26 17 -10 -3 -19 -1 -19 5 0
5 -5 6 -12 2 -7 -4 -8 -3 -4 5 4 6 11 9 16 6 5 -3 7 5 4 17 -3 13 -6 32 -6 43
0 11 -2 15 -5 8 -2 -7 -10 -10 -18 -7 -7 3 -16 1 -20 -5 -3 -6 -11 -11 -18
-11 -6 0 -2 7 9 16 18 15 18 15 -5 8 -17 -4 -21 -3 -16 6 4 6 18 10 31 7 13
-2 24 0 24 5 0 5 5 6 10 3 6 -3 10 -2 10 3 0 6 -14 9 -32 8 -36 -1 -51 22 -19
31 11 3 18 9 15 14 -3 5 -9 7 -14 4 -5 -3 -17 6 -28 20 -11 13 -23 21 -28 17
-5 -4 -2 1 5 10 7 9 9 23 5 29 -5 8 -3 9 5 5 7 -5 10 -14 7 -21 -7 -18 19 -52
28 -36 4 6 12 9 17 5 5 -3 7 -10 4 -15 -3 -5 2 -6 11 -2 15 6 15 7 -2 20 -10
7 -24 11 -30 9 -7 -3 -11 3 -9 12 1 9 -3 23 -9 31 -8 11 -8 13 0 8 18 -11 24
19 9 39 -7 11 -10 23 -5 29 5 6 0 20 -11 34 -17 21 -19 21 -20 5 0 -13 -4 -11
-11 9 -10 27 -22 34 -32 18 -4 -5 0 -12 6 -14 10 -4 10 -6 1 -6 -7 -1 -10 -8
-6 -18 3 -10 3 -15 -1 -11 -12 10 -14 42 -4 55 5 7 5 14 -2 18 -5 3 -10 1 -10
-4 0 -6 -5 -11 -11 -11 -8 0 -8 4 1 14 9 12 8 15 -9 13 -12 -1 -21 -5 -21 -10
0 -4 -4 -6 -9 -3 -5 4 -12 0 -14 -6 -4 -10 -8 -10 -15 1 -5 7 -15 11 -21 7 -7
-5 -9 -1 -5 9 5 12 10 13 20 4 7 -6 18 -8 24 -4 23 14 55 14 71 -1 21 -19 39
-11 34 14 -2 9 -4 21 -4 26 -1 5 -9 2 -19 -7 -12 -11 -22 -13 -35 -6 -9 6 -15
14 -12 19 3 5 0 12 -6 16 -7 4 -9 3 -5 -4 3 -6 -3 -14 -15 -17 -12 -4 -18 -12
-15 -20 3 -9 0 -12 -9 -8 -8 3 -13 9 -10 13 6 9 -25 23 -33 15 -3 -3 0 -5 6
-5 7 0 12 -5 12 -10 0 -14 -23 -8 -37 10 -12 15 -8 34 6 26 4 -3 8 1 8 9 0 12
-4 12 -19 -2 -13 -11 -15 -20 -8 -27 5 -5 10 -15 10 -21 -1 -5 -9 0 -19 12
-14 17 -20 19 -24 9 -7 -19 8 -40 23 -31 8 5 11 4 7 -2 -10 -16 -46 -23 -41
-8 3 7 0 16 -7 21 -8 5 -10 3 -4 -6 5 -9 4 -11 -4 -6 -6 4 -19 2 -28 -6 -12
-9 -15 -9 -9 0 4 6 2 12 -3 12 -6 0 -11 5 -11 11 0 5 5 7 10 4 17 -10 11 7 -7
22 -15 12 -15 14 -2 10 9 -3 16 1 16 8 0 10 -5 11 -18 4 -21 -11 -34 5 -32 36
1 16 1 16 -3 3 -7 -25 -23 -23 -21 2 1 11 5 20 9 20 4 0 8 4 8 9 0 6 -9 8 -20
6 -11 -2 -20 0 -20 6 0 5 5 9 11 9 6 0 9 10 8 23 -2 12 0 28 5 35 4 7 4 12 -1
11 -20 -3 -27 2 -13 11 9 6 -402 9 -1117 10 -905 0 -1132 -2 -1136 -12 -4 -10
-6 -10 -6 0 -1 6 -6 12 -12 12 -5 0 -7 -5 -3 -12 5 -7 3 -8 -7 -2 -26 16 -45
13 -58 -7z m2304 -8 c-3 -5 -1 -12 5 -16 5 -3 10 2 10 11 0 10 3 14 7 10 11
-10 11 -50 1 -63 -11 -14 -1 -36 12 -28 5 3 7 -4 5 -15 -5 -25 4 -52 15 -45 4
2 17 -6 29 -19 20 -21 20 -25 7 -39 -8 -8 -12 -18 -8 -22 4 -5 1 -5 -6 0 -10
5 -11 10 -3 18 14 14 14 37 0 37 -5 0 -8 -4 -5 -9 4 -5 -5 -4 -18 2 -17 8 -21
14 -13 20 8 6 4 7 -9 4 -13 -3 -21 1 -21 10 0 8 6 12 13 9 8 -3 11 0 7 9 -3 8
-9 12 -14 9 -5 -3 -9 0 -9 5 0 6 5 11 11 11 5 0 8 4 4 10 -3 5 -11 8 -18 6 -7
-1 -9 -1 -4 1 4 3 7 9 7 14 0 6 -4 8 -8 5 -5 -3 -9 1 -9 9 0 8 4 12 9 9 4 -3
8 2 8 11 0 9 -4 14 -8 11 -4 -2 -9 4 -9 15 -1 10 3 19 8 19 6 0 8 -4 4 -9z
m-2225 -17 c0 -2 -7 -4 -15 -4 -8 0 -15 4 -15 10 0 5 7 7 15 4 8 -4 15 -8 15
-10z m-16 -60 c3 -8 2 -12 -4 -9 -6 3 -10 10 -10 16 0 14 7 11 14 -7z m2230
-40 c3 -8 2 -12 -4 -9 -6 3 -10 10 -10 16 0 14 7 11 14 -7z m-2210 -22 c3 -5
-1 -9 -9 -9 -8 0 -12 4 -9 9 3 4 7 8 9 8 2 0 6 -4 9 -8z m2211 -10 c-3 -3 -11
0 -18 7 -9 10 -8 11 6 5 10 -3 15 -9 12 -12z m30 -32 c3 -5 1 -10 -4 -10 -6 0
-11 5 -11 10 0 6 2 10 4 10 3 0 8 -4 11 -10z m-38 -15 c0 -8 -4 -12 -9 -9 -5
3 -6 10 -3 15 9 13 12 11 12 -6z m-2374 -13 c-11 -9 -23 -26 -26 -37 -4 -18
-5 -17 -6 3 0 13 -5 20 -11 17 -6 -4 -8 -10 -5 -15 3 -5 0 -12 -6 -16 -7 -4
-9 -3 -5 4 3 6 2 13 -4 17 -6 4 -8 11 -4 16 3 5 9 7 14 4 4 -3 12 1 18 8 6 7
21 13 34 14 l23 2 -22 -17z m97 8 c0 -5 -4 -10 -10 -10 -5 0 -10 5 -10 10 0 6
5 10 10 10 6 0 10 -4 10 -10z m71 -13 c-10 -9 -11 -8 -5 6 3 10 9 15 12 12 3
-3 0 -11 -7 -18z m2279 15 c0 -5 -7 -9 -15 -9 -8 0 -12 4 -9 9 3 4 9 8 15 8 5
0 9 -4 9 -8z m284 0 c2 -4 -4 -9 -15 -9 -11 -1 -17 2 -14 8 7 11 22 12 29 1z
m63 -16 c0 -8 -6 -12 -14 -9 -7 3 -10 9 -7 14 8 14 21 11 21 -5z m-2662 -6 c3
-5 1 -10 -4 -10 -6 0 -11 5 -11 10 0 6 2 10 4 10 3 0 8 -4 11 -10z m2501 -5
c-9 -7 -16 -18 -16 -25 0 -7 -3 -11 -6 -7 -11 10 6 44 22 44 15 0 15 -1 0 -12z
m-171 -15 c10 -11 16 -20 13 -20 -3 0 -13 9 -23 20 -10 11 -16 20 -13 20 3 0
13 -9 23 -20z m-2761 -12 c1 -7 5 -19 10 -27 5 -8 -1 -7 -18 4 -21 14 -24 20
-15 32 13 15 19 12 23 -9z m150 -17 c-5 -6 -34 20 -34 30 0 5 8 1 18 -8 10
-10 17 -20 16 -22z m217 22 c12 -16 12 -17 -2 -6 -9 7 -19 10 -22 6 -4 -3 -7
-1 -7 5 0 17 16 15 31 -5z m2474 7 c-3 -5 -11 -10 -16 -10 -6 0 -7 5 -4 10 3
6 11 10 16 10 6 0 7 -4 4 -10z m120 -20 c-3 -5 -12 -10 -18 -10 -7 0 -6 4 3
10 19 12 23 12 15 0z m-2905 -14 c0 -2 -7 -7 -16 -10 -8 -3 -12 -2 -9 4 6 10
25 14 25 6z m150 -2 c0 -8 -19 -13 -24 -6 -3 5 1 9 9 9 8 0 15 -2 15 -3z
m-125 -24 c3 -6 -1 -7 -9 -4 -18 7 -21 14 -7 14 6 0 13 -4 16 -10z m3055 -14
c0 -3 -4 -8 -10 -11 -5 -3 -10 -1 -10 4 0 6 5 11 10 11 6 0 10 -2 10 -4z
m-3143 -41 c0 -8 -4 -12 -9 -9 -5 3 -6 10 -3 15 9 13 12 11 12 -6z m-32 -5
c-3 -5 -1 -10 5 -10 8 0 9 -7 5 -17 -4 -10 -9 -24 -12 -31 -4 -8 1 -10 13 -6
18 6 18 6 0 -8 -13 -10 -15 -17 -8 -22 7 -4 12 -12 12 -17 0 -6 -4 -7 -10 -4
-5 3 -10 1 -10 -4 0 -6 6 -11 13 -11 8 0 7 -4 -3 -11 -12 -8 -10 -10 10 -5 24
5 24 4 5 -10 -17 -12 -20 -12 -28 1 -4 9 -13 13 -19 9 -5 -4 -2 5 7 20 12 18
14 30 7 39 -7 8 -6 20 3 37 12 21 11 27 -2 43 -15 15 -15 17 1 17 9 0 14 -4
11 -10z m3185 -14 c0 -2 -7 -7 -16 -10 -8 -3 -12 -2 -9 4 6 10 25 14 25 6z
m-3150 -21 c0 -8 -4 -15 -10 -15 -5 0 -7 7 -4 15 4 8 8 15 10 15 2 0 4 -7 4
-15z m5 -45 c-3 -5 -12 -10 -18 -10 -7 0 -6 4 3 10 19 12 23 12 15 0z m3200
-160 c-3 -4 0 -10 7 -12 7 -3 5 -7 -6 -11 -9 -4 -15 -3 -11 2 3 5 0 11 -7 13
-6 2 -8 10 -4 16 4 7 12 10 17 6 5 -3 7 -9 4 -14z m-21 -36 c3 -8 2 -12 -4 -9
-6 3 -10 10 -10 16 0 14 7 11 14 -7z m-3204 -4 c0 -5 -2 -10 -4 -10 -3 0 -8 5
-11 10 -3 6 -1 10 4 10 6 0 11 -4 11 -10z m-230 -30 c3 -1 -5 -5 -17 -10 -23
-9 -33 -32 -12 -27 6 1 13 -4 15 -11 1 -7 0 -8 -3 -2 -2 5 -9 8 -13 5 -5 -3
-16 7 -24 23 -14 28 -14 28 17 26 18 -1 34 -3 37 -4z m100 -10 c0 -5 -9 -8
-19 -7 -15 1 -17 4 -9 14 11 13 28 9 28 -7z m3368 -5 c-3 -3 -9 2 -12 12 -6
14 -5 15 5 6 7 -7 10 -15 7 -18z m222 10 c7 -9 8 -15 2 -15 -5 0 -12 7 -16 15
-3 8 -4 15 -2 15 2 0 9 -7 16 -15z m33 0 c-3 -9 -8 -14 -10 -11 -3 3 -2 9 2
15 9 16 15 13 8 -4z m59 8 c-6 -2 -9 -10 -6 -15 4 -7 2 -8 -5 -4 -13 9 -5 26
12 25 9 0 8 -2 -1 -6z m-3760 -15 c-10 -10 -8 -16 8 -28 20 -15 20 -16 1 -16
-11 0 -18 3 -15 7 2 4 -3 10 -12 13 -12 5 -13 8 -2 20 7 9 17 15 23 16 5 0 3
-6 -3 -12z m55 -21 c15 6 15 5 3 -8 -12 -14 -16 -14 -30 0 -9 9 -14 22 -12 30
4 10 8 8 13 -7 6 -15 13 -20 26 -15z m67 22 c-2 -4 1 -9 8 -11 7 -3 2 -7 -10
-10 -12 -4 -25 -1 -29 4 -3 7 -1 8 5 4 7 -4 12 -3 12 3 0 5 -6 11 -12 14 -7 3
-3 4 9 4 12 -1 20 -4 17 -8z m3299 -4 c4 -8 3 -16 -1 -19 -4 -3 -9 4 -9 15 -2
23 3 25 10 4z m63 3 c4 -6 3 -8 -4 -4 -5 3 -13 0 -15 -6 -3 -8 -6 -6 -6 5 -1
19 14 23 25 5z m-3690 -15 c-2 -3 -6 -3 -9 -1 -3 2 -15 -6 -28 -17 l-24 -20
18 21 c9 11 24 21 32 21 8 0 13 -2 11 -4z m3799 -13 c-3 -5 -12 -10 -18 -10
-7 0 -6 4 3 10 19 12 23 12 15 0z m55 -10 c-12 -22 -21 -26 -17 -7 2 10 17 26
25 27 1 0 -2 -9 -8 -20z m47 14 c-3 -3 -12 -4 -19 -1 -8 3 -5 6 6 6 11 1 17
-2 13 -5z m27 -12 c3 -5 -1 -9 -9 -9 -8 0 -12 4 -9 9 3 4 7 8 9 8 2 0 6 -4 9
-8z m-3814 -17 c0 -7 -30 -13 -34 -7 -3 4 4 9 15 9 10 1 19 0 19 -2z m45 -5
c3 -6 -1 -7 -9 -4 -18 7 -21 14 -7 14 6 0 13 -4 16 -10z m152 -5 c0 -8 -4 -12
-9 -9 -5 3 -6 10 -3 15 9 13 12 11 12 -6z m3508 5 c3 -6 -1 -7 -9 -4 -18 7
-21 14 -7 14 6 0 13 -4 16 -10z m155 0 c0 -5 -5 -10 -11 -10 -5 0 -7 5 -4 10
3 6 8 10 11 10 2 0 4 -4 4 -10z m-3976 -16 c3 -8 2 -12 -4 -9 -6 3 -10 10 -10
16 0 14 7 11 14 -7z m-44 -24 c8 -16 8 -18 -5 -14 -18 7 -21 -12 -2 -20 6 -3
1 -3 -13 0 -20 5 -23 4 -12 -7 15 -17 15 -26 -1 -32 -17 -6 -14 53 3 63 9 5 9
9 1 14 -6 4 -9 12 -5 17 7 12 21 3 34 -21z m4132 -18 c9 -9 9 -12 0 -12 -7 0
-12 5 -12 11 0 8 -4 8 -12 2 -20 -15 -50 -24 -43 -13 3 6 13 10 21 10 8 0 13
4 10 9 -9 13 22 7 36 -7z m-4122 -42 c0 -5 -4 -10 -10 -10 -5 0 -10 5 -10 10
0 6 5 10 10 10 6 0 10 -4 10 -10z m4063 -35 c-3 -9 -8 -14 -10 -11 -3 3 -2 9
2 15 9 16 15 13 8 -4z m-4077 -50 c-10 -8 -23 -12 -28 -9 -14 9 -2 19 24 21
22 2 22 1 4 -12z m39 -15 c3 -5 1 -10 -4 -10 -6 0 -11 5 -11 10 0 6 2 10 4 10
3 0 8 -4 11 -10z m4090 -90 c-2 -11 2 -20 8 -20 8 0 8 -3 2 -8 -15 -11 -17
-32 -2 -32 6 0 3 -6 -7 -12 -15 -8 -21 -8 -24 0 -2 7 -9 9 -15 5 -7 -3 -3 4 8
17 17 20 18 23 3 17 -10 -4 -18 -2 -18 3 0 6 8 10 17 10 9 0 13 3 10 7 -4 3
-2 12 4 20 16 18 19 16 14 -7z m-67 -55 c-3 -3 -9 2 -12 12 -6 14 -5 15 5 6 7
-7 10 -15 7 -18z m-1 -40 c0 -8 -4 -12 -9 -9 -5 3 -6 10 -3 15 9 13 12 11 12
-6z m30 -47 c-3 -7 -5 -2 -5 12 0 14 2 19 5 13 2 -7 2 -19 0 -25z m-4052 -7
c-3 -2 -16 -6 -28 -8 -15 -2 -18 0 -9 5 14 9 45 12 37 3z m5 -57 c0 -8 -19
-13 -24 -6 -3 5 1 9 9 9 8 0 15 -2 15 -3z m4033 -19 c-3 -9 -8 -14 -10 -11 -3
3 -2 9 2 15 9 16 15 13 8 -4z m-4038 -44 c-3 -2 -16 -6 -28 -8 -15 -2 -18 0
-9 5 14 9 45 12 37 3z m4039 -7 c3 -8 2 -12 -4 -9 -6 3 -10 10 -10 16 0 14 7
11 14 -7z m-4094 -15 c0 -5 5 -7 11 -3 7 4 6 -3 -2 -17 -7 -13 -12 -27 -11
-31 1 -3 -5 -8 -12 -11 -10 -4 -13 1 -10 21 3 15 5 33 6 40 2 15 18 16 18 1z
m56 -21 c4 -6 3 -8 -4 -4 -6 3 -18 -4 -26 -16 -9 -12 -16 -17 -16 -11 0 11 26
43 35 43 2 0 7 -5 11 -12z m4044 8 c0 -3 -4 -8 -10 -11 -5 -3 -10 -1 -10 4 0
6 5 11 10 11 6 0 10 -2 10 -4z m-4061 -72 c-6 -7 -7 -19 -3 -25 4 -7 3 -9 -4
-5 -15 9 -11 43 5 43 9 0 10 -4 2 -13z m4071 7 c0 -5 -7 -12 -16 -15 -14 -5
-15 -4 -4 9 14 17 20 19 20 6z m-4074 -87 c1 -9 0 -13 -4 -10 -3 4 -7 14 -8
22 -1 9 0 13 4 10 3 -4 7 -14 8 -22z m4124 -18 c0 -2 -7 -7 -16 -10 -8 -3 -12
-2 -9 4 6 10 25 14 25 6z m-4100 -12 c0 -8 -19 -13 -24 -6 -3 5 1 9 9 9 8 0
15 -2 15 -3z m-5 -103 c-3 -2 -16 -6 -28 -8 -15 -2 -18 0 -9 5 14 9 45 12 37
3z m-55 -22 c0 -5 5 -7 11 -3 7 4 6 -3 -2 -17 -7 -13 -12 -27 -11 -31 1 -3 -5
-8 -12 -11 -10 -4 -13 1 -10 21 3 15 5 33 6 40 2 15 18 16 18 1z m56 -21 c4
-6 3 -8 -4 -4 -6 3 -18 -4 -26 -16 -9 -12 -16 -17 -16 -11 0 11 26 43 35 43 2
0 7 -5 11 -12z m4089 -8 c-2 -11 2 -20 8 -20 8 0 8 -3 2 -8 -15 -11 -17 -32
-2 -32 6 0 3 -6 -7 -12 -15 -8 -21 -8 -24 0 -2 7 -9 9 -15 5 -7 -3 -3 4 8 17
17 20 18 23 3 17 -10 -4 -18 -2 -18 3 0 6 8 10 17 10 9 0 13 3 10 7 -4 3 -2
12 4 20 16 18 19 16 14 -7z m-67 -55 c-3 -3 -9 2 -12 12 -6 14 -5 15 5 6 7 -7
10 -15 7 -18z m-4039 -1 c-6 -7 -7 -19 -3 -25 4 -7 3 -9 -4 -5 -15 9 -11 43 5
43 9 0 10 -4 2 -13z m4038 -39 c0 -8 -4 -12 -9 -9 -5 3 -6 10 -3 15 9 13 12
11 12 -6z m-4041 -41 c1 -9 0 -13 -4 -10 -3 4 -7 14 -8 22 -1 9 0 13 4 10 3
-4 7 -14 8 -22z m4071 -6 c-3 -7 -5 -2 -5 12 0 14 2 19 5 13 2 -7 2 -19 0 -25z
m-4047 -24 c0 -8 -19 -13 -24 -6 -3 5 1 9 9 9 8 0 15 -2 15 -3z m4033 -59 c-3
-9 -8 -14 -10 -11 -3 3 -2 9 2 15 9 16 15 13 8 -4z m-4038 -5 c3 -5 1 -10 -4
-10 -6 0 -11 5 -11 10 0 6 2 10 4 10 3 0 8 -4 11 -10z m4039 -46 c3 -8 2 -12
-4 -9 -6 3 -10 10 -10 16 0 14 7 11 14 -7z m6 -28 c0 -3 -4 -8 -10 -11 -5 -3
-10 -1 -10 4 0 6 5 11 10 11 6 0 10 -2 10 -4z m10 -65 c0 -5 -7 -12 -16 -15
-14 -5 -15 -4 -4 9 14 17 20 19 20 6z m-4055 -100 c-3 -2 -16 -6 -28 -8 -15
-2 -18 0 -9 5 14 9 45 12 37 3z m4105 -5 c0 -2 -7 -7 -16 -10 -8 -3 -12 -2 -9
4 6 10 25 14 25 6z m-4125 -86 c-3 -5 -12 -10 -18 -10 -7 0 -6 4 3 10 19 12
23 12 15 0z m-22 -21 c21 -19 21 -20 2 -14 -19 6 -19 6 -2 -8 16 -13 16 -14
-9 -14 -18 0 -22 2 -13 8 11 7 11 9 -1 9 -13 0 -13 1 0 10 10 6 11 10 3 10 -7
0 -13 5 -13 10 0 15 8 12 33 -11z m4132 -59 c-2 -11 2 -20 8 -20 8 0 8 -3 2
-8 -15 -11 -17 -32 -2 -32 6 0 3 -6 -7 -12 -15 -8 -21 -8 -24 0 -2 7 -9 9 -15
5 -7 -3 -3 4 8 17 17 20 18 23 3 17 -10 -4 -18 -2 -18 3 0 6 8 10 17 10 9 0
13 3 10 7 -4 3 -2 12 4 20 16 18 19 16 14 -7z m-4112 -3 c-3 -5 -11 -6 -19 -3
-8 3 -14 1 -14 -3 0 -5 6 -11 13 -14 6 -3 3 -5 -8 -4 -32 1 -26 33 6 32 15 0
25 -4 22 -8z m4045 -52 c-3 -3 -9 2 -12 12 -6 14 -5 15 5 6 7 -7 10 -15 7 -18z
m-4078 11 c0 -3 -4 -8 -10 -11 -5 -3 -10 -1 -10 4 0 6 5 11 10 11 6 0 10 -2
10 -4z m33 -16 c3 -11 3 -20 1 -20 -2 0 -8 9 -14 20 -6 11 -7 20 -2 20 6 0 12
-9 15 -20z m4044 -35 c0 -8 -4 -12 -9 -9 -5 3 -6 10 -3 15 9 13 12 11 12 -6z
m-4017 -9 c0 -3 -4 -8 -10 -11 -5 -3 -10 -1 -10 4 0 6 5 11 10 11 6 0 10 -2
10 -4z m-41 -38 c-7 -12 -12 -27 -11 -31 1 -4 -5 -10 -13 -13 -8 -3 -13 -10
-10 -15 3 -4 12 -6 19 -3 7 3 19 -3 26 -13 12 -15 12 -16 0 -5 -24 21 -34 13
-14 -10 15 -19 16 -20 2 -9 -21 15 -24 2 -5 -18 6 -8 8 -11 2 -9 -14 8 -38
-19 -25 -27 6 -3 10 -2 10 3 0 5 7 9 16 9 14 0 14 -2 -2 -14 -10 -7 -23 -13
-28 -13 -7 0 -8 -3 -1 -8 17 -12 41 -47 28 -38 -8 4 -13 2 -13 -8 0 -8 6 -16
13 -19 6 -3 2 -4 -10 -4 -22 1 -38 32 -22 43 5 3 6 11 2 17 -14 22 -13 46 3
61 10 10 11 16 3 16 -8 0 -9 3 0 14 8 10 8 16 -3 25 -11 10 -13 25 -7 65 0 4
8 6 15 3 9 -4 17 2 21 14 4 11 9 18 12 16 2 -3 -1 -16 -8 -29z m4088 0 c-3 -7
-5 -2 -5 12 0 14 2 19 5 13 2 -7 2 -19 0 -25z m-4055 -42 c7 4 8 2 4 -4 -9
-16 -36 -3 -36 17 1 14 2 14 11 -2 6 -9 15 -14 21 -11z m4041 -41 c-3 -9 -8
-14 -10 -11 -3 3 -2 9 2 15 9 16 15 13 8 -4z m1 -51 c3 -8 2 -12 -4 -9 -6 3
-10 10 -10 16 0 14 7 11 14 -7z m-4039 -33 c-3 -2 -16 -6 -28 -8 -15 -2 -18 0
-9 5 14 9 45 12 37 3z m4045 5 c0 -3 -4 -8 -10 -11 -5 -3 -10 -1 -10 4 0 6 5
11 10 11 6 0 10 -2 10 -4z m10 -65 c0 -5 -7 -12 -16 -15 -14 -5 -15 -4 -4 9
14 17 20 19 20 6z m-4075 -31 c-3 -5 -12 -10 -18 -10 -7 0 -6 4 3 10 19 12 23
12 15 0z m-22 -21 c21 -19 21 -20 2 -14 -19 6 -19 6 -2 -8 16 -13 16 -14 -9
-14 -18 0 -22 2 -13 8 11 7 11 9 -1 9 -13 0 -13 1 0 10 10 6 11 10 3 10 -7 0
-13 5 -13 10 0 15 8 12 33 -11z m20 -62 c-3 -5 -11 -6 -19 -3 -8 3 -14 1 -14
-3 0 -5 6 -11 13 -14 6 -3 3 -5 -8 -4 -32 1 -26 33 6 32 15 0 25 -4 22 -8z
m4127 9 c0 -2 -7 -7 -16 -10 -8 -3 -12 -2 -9 4 6 10 25 14 25 6z m-4145 -62
c-18 -13 -35 -11 -35 5 0 5 12 9 27 9 25 0 25 -1 8 -14z m40 -14 c3 -5 1 -10
-4 -10 -6 0 -11 5 -11 10 0 6 2 10 4 10 3 0 8 -4 11 -10z m4090 -90 c-2 -11 2
-20 8 -20 8 0 8 -3 2 -8 -15 -11 -17 -32 -2 -32 6 0 3 -6 -7 -12 -15 -8 -21
-8 -24 0 -2 7 -9 9 -15 5 -7 -3 -3 4 8 17 17 20 18 23 3 17 -10 -4 -18 -2 -18
3 0 6 8 10 17 10 9 0 13 3 10 7 -4 3 -2 12 4 20 16 18 19 16 14 -7z m-67 -55
c-3 -3 -9 2 -12 12 -6 14 -5 15 5 6 7 -7 10 -15 7 -18z m-1 -40 c0 -8 -4 -12
-9 -9 -5 3 -6 10 -3 15 9 13 12 11 12 -6z m30 -47 c-3 -7 -5 -2 -5 12 0 14 2
19 5 13 2 -7 2 -19 0 -25z m-4052 -7 c-3 -2 -16 -6 -28 -8 -15 -2 -18 0 -9 5
14 9 45 12 37 3z m4038 -76 c-3 -9 -8 -14 -10 -11 -3 3 -2 9 2 15 9 16 15 13
8 -4z m-4059 -45 c-3 -3 -10 3 -15 12 -5 10 -16 15 -23 12 -8 -3 -17 -1 -21 5
-3 7 0 8 9 5 10 -4 16 -1 16 7 0 8 9 3 20 -11 10 -14 16 -27 14 -30z m4060 -6
c3 -8 2 -12 -4 -9 -6 3 -10 10 -10 16 0 14 7 11 14 -7z m-4038 -36 c4 -7 3 -8
-4 -4 -6 4 -19 -5 -28 -19 -9 -14 -26 -30 -38 -36 -20 -9 -20 -9 -3 4 10 8 14
17 10 19 -4 3 -2 3 5 2 6 -2 12 1 12 6 0 8 28 40 35 40 2 0 7 -5 11 -12z
m4044 8 c0 -3 -4 -8 -10 -11 -5 -3 -10 -1 -10 4 0 6 5 11 10 11 6 0 10 -2 10
-4z m62 -78 c-12 -12 -4 -40 9 -32 5 3 9 2 8 -3 -3 -20 2 -33 14 -33 8 0 24
-11 37 -25 12 -13 26 -22 31 -20 4 3 10 1 13 -4 4 -5 2 -12 -4 -16 -6 -4 -8
-10 -6 -14 3 -4 -1 -8 -9 -8 -8 0 -15 4 -15 9 0 4 5 8 11 8 5 0 7 5 4 10 -5 8
-12 7 -22 -1 -12 -10 -16 -10 -23 1 -5 9 -5 20 2 27 7 9 7 13 -1 13 -6 0 -16
-10 -21 -22 -7 -18 -9 -19 -9 -5 -1 9 -5 18 -11 18 -5 1 -14 2 -20 3 -5 0 -10
6 -9 11 1 6 5 9 10 8 10 -3 12 11 2 20 -3 4 -16 -1 -27 -10 -20 -18 -20 -17
-6 2 8 11 17 22 20 25 3 3 5 11 6 18 3 38 5 43 15 36 7 -4 7 -10 1 -16z m-32
-14 c0 -2 -7 -4 -15 -4 -8 0 -15 4 -15 10 0 5 7 7 15 4 8 -4 15 -8 15 -10z
m-4077 -29 c-3 -9 -8 -14 -10 -11 -3 3 -2 9 2 15 9 16 15 13 8 -4z m4067 11
c0 -2 -6 -9 -14 -15 -11 -9 -16 -9 -22 0 -4 7 -3 9 4 5 6 -3 13 -2 17 4 6 10
15 14 15 6z m-4131 -55 c9 -6 6 -8 -13 -8 -14 0 -23 3 -20 8 7 11 15 11 33 0z
m-369 -26 c5 3 11 1 15 -5 3 -5 -1 -10 -10 -10 -9 0 -13 -5 -10 -10 4 -6 10
-8 15 -5 5 3 11 1 14 -4 7 -11 -13 -9 -32 3 -19 11 -30 -3 -12 -15 13 -9 13
-10 0 -6 -8 2 -15 12 -15 22 0 10 -6 20 -13 23 -6 2 -10 8 -6 13 3 5 13 5 25
-1 11 -6 24 -8 29 -5z m4815 5 c3 -5 1 -10 -4 -10 -6 0 -11 5 -11 10 0 6 2 10
4 10 3 0 8 -4 11 -10z m-86 -9 c10 -7 11 -13 2 -30 -13 -23 -36 -19 -27 5 3 8
-1 14 -9 14 -8 0 -14 -5 -12 -11 1 -6 -4 -14 -10 -16 -21 -8 -14 15 9 31 26
18 28 19 47 7z m-4349 -13 c0 -4 -4 -8 -9 -8 -6 0 -12 4 -15 8 -3 5 1 9 9 9 8
0 15 -4 15 -9z m-83 -23 c0 -8 -4 -12 -9 -9 -4 3 -8 9 -8 15 0 5 4 9 8 9 5 0
9 -7 9 -15z m-342 -18 c3 -4 2 -5 -2 -2 -3 3 -13 -1 -21 -8 -11 -8 -14 -8 -9
0 4 6 1 14 -5 17 -7 2 -3 4 9 2 12 -1 25 -5 28 -9z m219 5 c2 -4 0 -14 -6 -22
-8 -12 -9 -12 -5 2 3 9 1 19 -6 22 -9 3 -9 5 0 5 6 1 14 -3 17 -7z m4723 -12
c-1 -21 -10 -18 -13 5 -1 8 2 15 6 15 5 0 8 -9 7 -20z m-37 -6 c0 -8 -19 -13
-24 -6 -3 5 1 9 9 9 8 0 15 -2 15 -3z m-4846 -782 c3 -5 -1 -9 -9 -9 -8 0 -12
4 -9 9 3 4 7 8 9 8 2 0 6 -4 9 -8z m-41 -17 c-3 -9 -8 -14 -10 -11 -3 3 -2 9
2 15 9 16 15 13 8 -4z m180 -10 c-7 -21 -12 -19 -10 4 0 11 5 18 9 15 4 -3 5
-11 1 -19z m4527 4 c0 -5 -4 -9 -8 -9 -5 0 -9 7 -9 15 0 8 4 12 9 9 4 -3 8 -9
8 -15z m73 1 c-3 -12 -8 -19 -11 -16 -5 6 5 36 12 36 2 0 2 -9 -1 -20z m80 5
c-3 -9 -8 -14 -10 -11 -3 3 -2 9 2 15 9 16 15 13 8 -4z m35 -5 c-7 -11 -17
-20 -22 -20 -5 0 -1 9 9 20 10 11 20 20 22 20 2 0 -2 -9 -9 -20z m-4808 -2 c0
-4 -4 -8 -9 -8 -6 0 -12 4 -15 8 -3 5 1 9 9 9 8 0 15 -4 15 -9z m237 -8 c-1
-11 -5 -20 -9 -20 -3 0 -6 9 -5 20 1 11 5 20 9 20 3 0 6 -9 5 -20z m4600 -2
c-3 -8 -6 -5 -6 6 -1 11 2 17 5 13 3 -3 4 -12 1 -19z m-116 -18 c6 0 7 6 3 13
-6 8 -3 8 9 -1 9 -8 20 -11 25 -8 5 3 21 -1 36 -9 26 -14 27 -14 20 8 -6 22
-6 22 15 -2 26 -30 26 -29 -4 -26 -14 2 -25 -2 -25 -8 -1 -7 -10 -1 -20 12
-11 13 -20 18 -20 12 0 -7 -4 -10 -9 -6 -5 3 -13 0 -17 -6 -5 -9 -11 -7 -21 6
-8 13 -13 14 -13 5 0 -7 -2 -11 -5 -8 -3 3 -2 13 2 24 4 11 8 13 11 6 2 -7 8
-12 13 -12z m-4721 -24 c0 -3 -4 -8 -10 -11 -5 -3 -10 -1 -10 4 0 6 5 11 10
11 6 0 10 -2 10 -4z m335 -14 c-3 -3 -11 0 -18 7 -9 10 -8 11 6 5 10 -3 15 -9
12 -12z m-135 4 c0 -3 -4 -8 -10 -11 -5 -3 -10 -1 -10 4 0 6 5 11 10 11 6 0
10 -2 10 -4z m4257 -16 c2 -23 -13 -35 -23 -19 -5 8 -3 9 6 4 10 -6 12 -4 7 7
-3 9 -3 19 0 22 9 8 9 8 10 -14z m34 -53 c-10 -9 -11 -8 -5 6 3 10 9 15 12 12
3 -3 0 -11 -7 -18z m-41 9 c0 -2 -7 -7 -16 -10 -8 -3 -12 -2 -9 4 6 10 25 14
25 6z m-4093 -21 c0 -8 -4 -12 -9 -9 -5 3 -6 10 -3 15 9 13 12 11 12 -6z
m4038 6 c3 -5 2 -12 -3 -15 -5 -3 -9 1 -9 9 0 17 3 19 12 6z m-4067 -22 c8
-12 9 -18 3 -15 -5 4 -12 2 -16 -4 -6 -10 6 -14 35 -11 8 1 -1 -8 -20 -18 -19
-11 -30 -20 -25 -21 6 0 19 -13 30 -28 15 -21 15 -24 2 -13 -12 10 -17 10 -17
1 0 -6 10 -20 21 -29 18 -14 20 -21 11 -37 -11 -18 -12 -17 -9 5 1 13 -2 25
-8 27 -6 2 -11 -16 -12 -42 -2 -41 0 -44 15 -32 16 12 16 11 2 -6 -14 -18 -13
-19 3 -13 9 3 17 2 17 -3 0 -6 -7 -10 -16 -10 -14 0 -14 -3 -4 -15 9 -11 10
-19 3 -26 -8 -8 -14 -5 -22 9 -6 10 -7 22 -4 26 3 3 0 6 -8 6 -11 0 -11 2 1
10 10 6 11 10 3 10 -15 0 -13 21 2 32 6 5 6 8 -1 8 -7 0 -10 20 -9 53 1 28 -1
57 -4 62 -10 18 -10 39 0 51 7 8 6 14 -1 19 -10 6 -5 25 8 25 4 0 13 -9 20
-21z m4092 -39 c0 -5 -2 -10 -4 -10 -3 0 -8 5 -11 10 -3 6 -1 10 4 10 6 0 11
-4 11 -10z m-4045 -20 c3 -5 1 -10 -4 -10 -6 0 -11 5 -11 10 0 6 2 10 4 10 3
0 8 -4 11 -10z m4044 -54 c9 -10 8 -15 -2 -19 -8 -3 -13 3 -13 14 0 23 0 23
15 5z m-4025 -44 c3 -5 -1 -9 -9 -9 -8 0 -12 4 -9 9 3 4 7 8 9 8 2 0 6 -4 9
-8z m4023 -84 c-3 -8 -6 -5 -6 6 -1 11 2 17 5 13 3 -3 4 -12 1 -19z m-2442
-27 c3 -5 2 -12 -3 -15 -5 -3 -9 1 -9 9 0 17 3 19 12 6z m200 0 c3 -5 2 -12
-3 -15 -5 -3 -9 1 -9 9 0 17 3 19 12 6z m-1749 -13 c4 -7 3 -8 -4 -4 -7 4 -12
2 -12 -5 0 -7 -3 -10 -6 -6 -6 5 3 27 11 27 2 0 7 -5 11 -12z m3744 6 c0 -8
-19 -13 -24 -6 -3 5 1 9 9 9 8 0 15 -2 15 -3z m-1945 -24 c3 -6 -1 -7 -9 -4
-18 7 -21 14 -7 14 6 0 13 -4 16 -10z m75 6 c0 -2 -7 -7 -16 -10 -8 -3 -12 -2
-9 4 6 10 25 14 25 6z m95 -6 c-3 -5 -12 -10 -18 -10 -7 0 -6 4 3 10 19 12 23
12 15 0z m385 6 c0 -3 -4 -8 -10 -11 -5 -3 -10 -1 -10 4 0 6 5 11 10 11 6 0
10 -2 10 -4z m1475 -6 c-3 -5 -1 -10 6 -10 7 0 10 -3 6 -6 -9 -9 -28 6 -22 17
4 5 8 9 11 9 3 0 2 -4 -1 -10z m-3735 -10 c0 -5 -2 -10 -4 -10 -3 0 -8 5 -11
10 -3 6 -1 10 4 10 6 0 11 -4 11 -10z m1417 -5 c-4 -8 -2 -17 3 -20 6 -4 10
-1 10 6 0 7 3 9 6 6 4 -4 2 -13 -4 -20 -7 -8 -8 -18 -4 -23 4 -5 -3 -1 -15 10
-12 10 -27 15 -32 11 -6 -3 -11 -1 -11 4 0 6 7 11 15 11 9 0 18 7 21 15 4 8 8
15 11 15 3 0 3 -7 0 -15z m63 5 c-8 -5 -19 -10 -25 -10 -5 0 -3 5 5 10 8 5 20
10 25 10 6 0 3 -5 -5 -10z m150 -5 c8 0 18 5 22 10 4 6 8 2 8 -8 0 -14 -5 -17
-19 -12 -21 6 -46 -25 -33 -41 4 -5 -1 -2 -10 5 -10 7 -16 17 -13 21 3 5 -1
11 -7 14 -7 3 -2 3 12 -1 23 -5 24 -5 10 12 -13 17 -13 18 0 10 8 -5 22 -10
30 -10z m210 -6 c0 -5 -7 -6 -15 -3 -10 4 -13 2 -10 -8 6 -15 35 -21 35 -6 0
17 26 7 39 -14 10 -17 10 -20 0 -11 -9 10 -16 10 -27 1 -10 -9 -15 -9 -21 1
-11 16 -12 17 -38 3 -17 -9 -22 -9 -27 3 -3 8 0 17 6 21 7 4 8 3 4 -4 -4 -7
-1 -12 7 -12 9 0 13 9 12 24 -2 19 1 23 16 19 10 -3 19 -9 19 -14z m482 14
c-6 -3 -10 -9 -7 -14 4 -5 -1 -6 -10 -3 -11 5 -14 2 -8 -12 4 -11 3 -15 -5
-10 -21 13 -9 41 17 42 14 1 20 -1 13 -3z m1231 -8 c-3 -9 -8 -14 -10 -11 -3
3 -2 9 2 15 9 16 15 13 8 -4z m-3493 -10 c0 -8 5 -15 10 -15 6 0 10 7 10 15 0
8 4 15 10 15 5 0 7 -6 4 -13 -3 -8 3 -13 16 -13 11 0 20 7 20 16 0 8 7 2 15
-14 18 -34 11 -50 -17 -35 -14 7 -23 8 -30 1 -6 -6 -17 -8 -25 -5 -12 5 -12 7
-1 14 9 6 9 9 1 9 -7 0 -17 9 -23 20 -7 14 -7 20 0 20 5 0 10 -7 10 -15z m107
-7 c-3 -8 -6 -5 -6 6 -1 11 2 17 5 13 3 -3 4 -12 1 -19z m1528 12 c3 -5 1 -10
-4 -10 -6 0 -11 5 -11 10 0 6 2 10 4 10 3 0 8 -4 11 -10z m45 6 c0 -2 -7 -7
-16 -10 -8 -3 -12 -2 -9 4 6 10 25 14 25 6z m220 -55 c0 -15 -7 -13 -10 4 -1
6 -6 19 -12 30 -9 20 -9 20 6 1 9 -11 16 -26 16 -35z m-475 18 c-5 -16 -4 -19
5 -14 9 5 11 4 6 -4 -6 -9 -11 -9 -23 1 -10 8 -11 14 -4 16 6 2 9 8 5 13 -3 5
0 9 6 9 7 0 9 -8 5 -21z m1062 -4 c-24 -18 -21 -23 13 -20 16 1 27 -1 25 -6
-3 -4 -14 -6 -25 -4 -11 2 -25 -4 -33 -15 -13 -19 -14 -19 -36 3 l-21 24 22
-2 c24 -2 58 25 50 39 -3 5 1 6 8 1 10 -6 10 -11 -3 -20z m-1347 0 c0 -2 -10
-10 -22 -16 -21 -11 -22 -11 -9 4 13 16 31 23 31 12z m2315 -5 c4 -6 13 -9 20
-8 14 3 16 -7 7 -30 -4 -11 -6 -11 -13 0 -7 11 -9 11 -9 -1 0 -11 -3 -11 -15
-1 -8 7 -15 18 -15 24 0 6 4 4 10 -4 5 -8 13 -11 17 -6 4 4 -1 14 -11 22 -11
8 -15 14 -9 14 7 0 15 -5 18 -10z m-49 -42 c-9 -12 -16 -19 -16 -15 0 11 24
47 28 42 2 -2 -3 -14 -12 -27z m-3149 7 c0 -8 -4 -12 -9 -9 -5 3 -6 10 -3 15
9 13 12 11 12 -6z m-40 -10 c0 -8 -4 -12 -9 -9 -4 3 -8 9 -8 15 0 5 4 9 8 9 5
0 9 -7 9 -15z m843 -59 c0 -2 -8 -10 -17 -17 -16 -13 -17 -12 -4 4 13 16 21
21 21 13z m-810 -12 c0 -8 -19 -13 -24 -6 -3 5 1 9 9 9 8 0 15 -2 15 -3z m-35
-32 c-6 -4 -11 -15 -13 -24 -2 -13 2 -16 15 -12 15 4 14 3 -2 -7 -29 -19 -45
-20 -45 -3 0 9 5 12 10 9 6 -3 10 -1 10 4 0 6 -4 11 -10 11 -5 0 -10 5 -10 11
0 5 4 8 9 5 5 -3 14 1 21 9 7 9 15 13 19 10 3 -3 1 -9 -4 -13z m25 -7 c0 -8
-4 -15 -10 -15 -5 0 -7 7 -4 15 4 8 8 15 10 15 2 0 4 -7 4 -15z m821 -22 c13
-15 17 -22 8 -15 -9 6 -20 8 -25 4 -5 -4 -6 -3 -2 2 4 5 3 15 -3 23 -21 25 -3
13 22 -14z m66 12 c0 -8 -4 -12 -9 -9 -4 3 -8 9 -8 15 0 5 4 9 8 9 5 0 9 -7 9
-15z m1369 -2 c-2 -9 -8 -19 -15 -21 -14 -5 -11 20 4 30 14 10 14 10 11 -9z
m-2251 -33 c-3 -5 -12 -10 -18 -10 -7 0 -6 4 3 10 19 12 23 12 15 0z m2309 2
c3 -5 -1 -9 -9 -9 -8 0 -12 4 -9 9 3 4 7 8 9 8 2 0 6 -4 9 -8z"/>
<path d="M3696 5033 c-6 -14 -5 -15 5 -6 7 7 10 15 7 18 -3 3 -9 -2 -12 -12z"/>
<path d="M4615 4001 c-3 -5 -2 -12 3 -15 5 -3 9 1 9 9 0 17 -3 19 -12 6z"/>
<path d="M476 3733 c-6 -14 -5 -15 5 -6 7 7 10 15 7 18 -3 3 -9 -2 -12 -12z"/>
<path d="M476 3413 c-6 -14 -5 -15 5 -6 7 7 10 15 7 18 -3 3 -9 -2 -12 -12z"/>
<path d="M4615 3361 c-3 -5 -2 -12 3 -15 5 -3 9 1 9 9 0 17 -3 19 -12 6z"/>
<path d="M4615 2721 c-3 -5 -2 -12 3 -15 5 -3 9 1 9 9 0 17 -3 19 -12 6z"/>
<path d="M475 2611 c-3 -5 -2 -12 3 -15 5 -3 9 1 9 9 0 17 -3 19 -12 6z"/>
<path d="M4615 2081 c-3 -5 -2 -12 3 -15 5 -3 9 1 9 9 0 17 -3 19 -12 6z"/>
<path d="M4655 1671 c-3 -5 2 -11 10 -15 8 -3 17 -1 20 3 3 5 -2 11 -10 15 -8
3 -17 1 -20 -3z"/>
<path d="M4706 1641 c-4 -5 -2 -12 3 -15 5 -4 12 -2 15 3 4 5 2 12 -3 15 -5 4
-12 2 -15 -3z"/>
<path d="M4823 1609 c-2 -23 3 -25 10 -4 4 8 3 16 -1 19 -4 3 -9 -4 -9 -15z"/>
<path d="M496 327 c3 -10 9 -15 12 -12 3 3 0 11 -7 18 -10 9 -11 8 -5 -6z"/>
<path d="M773 244 c0 -10 4 -11 13 -3 14 11 35 9 47 -6 5 -6 7 -4 4 5 -5 19
-64 22 -64 4z"/>
<path d="M3200 210 c-9 -6 -10 -10 -3 -10 6 0 15 5 18 10 8 12 4 12 -15 0z"/>
<path d="M3753 5035 c0 -8 4 -12 9 -9 5 3 6 10 3 15 -9 13 -12 11 -12 -6z"/>
<path d="M1384 5005 c-8 -13 -13 -28 -10 -33 3 -5 -2 -16 -12 -24 -20 -17 -66
-22 -56 -6 5 7 2 8 -5 3 -18 -11 0 -25 38 -30 25 -3 34 1 48 22 20 30 25 53
12 53 -5 0 -9 5 -9 11 0 5 4 8 8 5 5 -3 9 1 9 9 0 21 -4 19 -23 -10z m-1 -62
c-8 -13 -19 -23 -25 -23 -5 0 0 9 11 21 11 12 17 29 14 38 -4 13 -3 13 5 2 7
-10 6 -21 -5 -38z"/>
<path d="M1345 4981 c4 -8 2 -17 -6 -22 -9 -6 -10 -9 -2 -9 19 0 27 21 13 33
-10 9 -11 9 -5 -2z"/>
<path d="M3949 4923 c-13 -16 -12 -17 4 -4 9 7 17 15 17 17 0 8 -8 3 -21 -13z"/>
<path d="M1245 4917 c-15 -12 -16 -15 -4 -22 8 -5 11 -5 7 0 -4 4 0 14 10 21
23 18 11 18 -13 1z"/>
<path d="M4055 4920 c-3 -5 -3 -10 2 -10 4 0 1 -5 -7 -11 -12 -8 -12 -10 -1
-7 8 2 15 12 17 21 3 19 -2 22 -11 7z"/>
<path d="M1122 4890 c-7 -11 -9 -20 -4 -20 4 0 13 9 20 20 7 11 9 20 4 20 -4
0 -13 -9 -20 -20z"/>
<path d="M1157 4890 c-13 -12 -15 -20 -7 -25 6 -4 12 -5 13 -4 1 2 8 14 15 27
15 26 4 28 -21 2z"/>
<path d="M3825 4901 c3 -2 -1 -11 -8 -19 -9 -11 -4 -11 16 2 32 22 32 22 7 22
-10 0 -17 -2 -15 -5z"/>
<path d="M944 4879 c-4 -7 -3 -9 4 -5 5 3 13 0 15 -6 4 -9 6 -10 6 -1 1 17
-16 25 -25 12z"/>
<path d="M4115 4879 c-4 -6 -5 -12 -2 -15 2 -3 7 2 10 11 7 17 1 20 -8 4z"/>
<path d="M4150 4860 c0 -5 5 -10 11 -10 5 0 7 5 4 10 -3 6 -8 10 -11 10 -2 0
-4 -4 -4 -10z"/>
<path d="M4103 4842 c-12 -8 -3 -33 13 -35 17 -2 43 -44 33 -54 -10 -10 24
-53 41 -53 6 0 10 -5 10 -11 0 -5 -5 -7 -12 -3 -7 4 -8 3 -4 -4 4 -7 2 -12 -3
-12 -6 0 -11 8 -11 18 0 14 -2 15 -10 2 -6 -9 -5 -17 2 -21 7 -4 6 -8 -3 -11
-9 -3 -8 -6 5 -11 9 -4 15 -3 11 2 -3 5 3 12 14 16 10 3 21 15 24 25 3 11 2
18 -2 16 -4 -3 -13 -1 -21 4 -15 9 -22 60 -8 60 4 0 8 -7 8 -15 0 -8 4 -15 8
-15 16 0 9 27 -10 39 -12 8 -18 8 -18 0 0 -5 -5 -7 -10 -4 -8 5 -7 12 2 23 10
12 10 14 1 8 -7 -4 -13 -3 -13 2 0 16 13 22 25 12 9 -7 17 -5 26 7 13 16 12
17 -3 5 -12 -9 -18 -10 -23 -2 -5 8 -13 6 -27 -7 -20 -18 -20 -17 -14 5 8 23
-7 30 -31 14z m64 -97 c0 -8 -4 -12 -9 -9 -5 3 -6 10 -3 15 9 13 12 11 12 -6z"/>
<path d="M924 4816 c19 -15 13 -41 -7 -29 -7 4 -6 0 2 -10 8 -10 9 -17 3 -17
-6 0 -16 8 -21 18 -6 9 -11 12 -11 5 0 -17 20 -28 52 -29 18 0 24 3 19 10 -9
11 -11 17 -11 36 0 5 -10 14 -22 20 -22 10 -22 10 -4 -4z m23 -41 c0 -8 -4
-12 -9 -9 -5 3 -6 10 -3 15 9 13 12 11 12 -6z"/>
<path d="M4195 4801 c-3 -5 -2 -12 3 -15 5 -3 9 1 9 9 0 17 -3 19 -12 6z"/>
<path d="M855 4769 c-4 -6 -5 -12 -2 -15 2 -3 7 2 10 11 7 17 1 20 -8 4z"/>
<path d="M895 4680 c-3 -6 1 -7 9 -4 18 7 21 14 7 14 -6 0 -13 -4 -16 -10z"/>
<path d="M4195 4651 c-3 -5 -2 -12 3 -15 5 -3 9 1 9 9 0 17 -3 19 -12 6z"/>
<path d="M890 4600 c0 -5 5 -10 11 -10 5 0 7 5 4 10 -3 6 -8 10 -11 10 -2 0
-4 -4 -4 -10z"/>
<path d="M4190 4569 c0 -5 5 -7 10 -4 6 3 10 8 10 11 0 2 -4 4 -10 4 -5 0 -10
-5 -10 -11z"/>
<path d="M4150 4562 c0 -5 7 -9 15 -9 8 0 15 4 15 9 0 4 -7 8 -15 8 -8 0 -15
-4 -15 -8z"/>
<path d="M4228 4493 c7 -3 16 -2 19 1 4 3 -2 6 -13 5 -11 0 -14 -3 -6 -6z"/>
<path d="M4233 4459 c-1 -14 3 -19 13 -15 8 3 15 1 15 -4 1 -6 2 -16 3 -22 0
-7 6 -13 13 -13 6 0 15 -3 18 -7 4 -4 16 -3 26 3 11 5 19 6 19 2 0 -4 7 2 15
13 8 10 14 26 14 34 0 8 -4 5 -9 -7 -5 -13 -14 -23 -20 -23 -8 0 -7 7 0 23 11
22 11 22 -6 2 -11 -14 -18 -16 -21 -7 -3 6 -9 12 -15 12 -7 0 -7 -5 1 -13 16
-20 2 -29 -16 -11 -12 11 -12 18 -3 28 9 12 7 14 -7 11 -10 -1 -23 1 -28 6 -7
5 -11 0 -12 -12z m97 -43 c0 -2 -7 -7 -16 -10 -8 -3 -12 -2 -9 4 6 10 25 14
25 6z"/>
<path d="M579 4463 c-1 -5 -1 -12 0 -17 1 -5 -5 -6 -14 -2 -10 3 -14 2 -10 -5
9 -14 28 -6 31 14 1 9 0 17 -2 17 -2 0 -5 -3 -5 -7z"/>
<path d="M4415 4461 c-3 -5 -2 -12 3 -15 5 -3 9 1 9 9 0 17 -3 19 -12 6z"/>
<path d="M4587 4413 c3 -7 13 -18 22 -22 13 -7 17 -5 17 9 0 15 -3 17 -15 7
-12 -10 -14 -9 -9 4 4 9 1 16 -7 16 -7 0 -11 -6 -8 -14z"/>
<path d="M482 4403 c-6 -2 -9 -10 -5 -16 4 -7 0 -8 -13 -3 -16 6 -17 5 -6 -6
11 -11 16 -10 26 4 7 10 17 14 21 10 5 -4 5 -1 1 6 -4 6 -8 12 -9 11 -1 0 -8
-3 -15 -6z"/>
<path d="M4655 4381 c-3 -5 -2 -12 3 -15 5 -3 9 1 9 9 0 17 -3 19 -12 6z"/>
<path d="M4676 4353 c-6 -14 -5 -15 5 -6 7 7 10 15 7 18 -3 3 -9 -2 -12 -12z"/>
<path d="M4668 4312 c-3 -11 0 -19 7 -19 7 0 10 8 7 19 -2 10 -6 18 -7 18 -1
0 -5 -8 -7 -18z"/>
<path d="M436 4293 c-6 -14 -5 -15 5 -6 7 7 10 15 7 18 -3 3 -9 -2 -12 -12z"/>
<path d="M416 4242 c-3 -5 1 -9 9 -9 8 0 12 4 9 9 -3 4 -7 8 -9 8 -2 0 -6 -4
-9 -8z"/>
<path d="M470 4202 c0 -6 -8 -9 -17 -6 -15 5 -16 4 -3 -5 16 -11 40 3 27 16
-4 3 -7 1 -7 -5z"/>
<path d="M4667 4187 c-3 -8 1 -14 8 -14 7 0 11 6 8 14 -3 7 -6 13 -8 13 -2 0
-5 -6 -8 -13z"/>
<path d="M4675 4139 c-4 -6 -5 -12 -2 -15 2 -3 7 2 10 11 7 17 1 20 -8 4z"/>
<path d="M416 4078 c3 -5 10 -6 15 -3 13 9 11 12 -6 12 -8 0 -12 -4 -9 -9z"/>
<path d="M440 4045 c6 -8 8 -20 4 -27 -5 -10 -4 -10 5 -2 13 12 5 44 -11 44
-6 0 -5 -6 2 -15z"/>
<path d="M4676 4027 c3 -10 9 -15 12 -12 3 3 0 11 -7 18 -10 9 -11 8 -5 -6z"/>
<path d="M427 3999 c7 -7 15 -10 18 -7 3 3 -2 9 -12 12 -14 6 -15 5 -6 -5z"/>
<path d="M448 3963 c-3 -12 -3 -22 1 -21 19 2 24 -4 11 -13 -11 -8 -12 -12 -2
-16 6 -2 10 -9 7 -13 -3 -5 -2 -11 3 -14 5 -3 8 9 7 27 -1 18 3 36 9 40 7 6 5
7 -6 3 -11 -3 -18 1 -20 12 -3 13 -5 12 -10 -5z"/>
<path d="M4632 3935 c4 -4 3 -14 -4 -22 -8 -11 -7 -12 6 -7 19 7 21 20 4 30
-7 4 -10 4 -6 -1z"/>
<path d="M416 3918 c3 -5 10 -6 15 -3 13 9 11 12 -6 12 -8 0 -12 -4 -9 -9z"/>
<path d="M4660 3926 c0 -2 7 -7 16 -10 8 -3 12 -2 9 4 -6 10 -25 14 -25 6z"/>
<path d="M440 3885 c10 -12 10 -19 2 -27 -7 -7 -12 -17 -12 -22 0 -6 7 -1 15
11 15 22 11 53 -7 53 -6 0 -5 -7 2 -15z"/>
<path d="M4670 3880 c-13 -8 -12 -10 3 -10 9 0 17 5 17 10 0 12 -1 12 -20 0z"/>
<path d="M439 3808 c-11 -8 -11 -9 2 -5 9 3 22 0 28 -6 6 -6 13 -9 15 -6 11
11 -31 27 -45 17z"/>
<path d="M414 3778 c-3 -4 5 -5 17 -3 30 6 36 14 9 12 -12 -1 -24 -5 -26 -9z"/>
<path d="M4618 3778 c9 -11 10 -18 2 -23 -6 -3 -7 -12 -3 -18 4 -7 8 -19 8
-27 0 -8 4 -20 8 -26 4 -7 0 -17 -8 -24 -11 -9 -12 -16 -5 -25 8 -9 8 -15 0
-20 -15 -9 -2 -25 15 -19 21 9 26 32 9 49 -9 8 -11 15 -5 15 6 0 11 7 11 15 0
8 6 15 13 15 6 1 1 7 -12 14 l-24 14 21 6 c12 4 22 12 22 19 0 8 -3 8 -12 -1
-17 -17 -33 -15 -18 3 7 9 11 17 9 18 -2 1 -13 9 -24 17 -18 14 -19 14 -7 -2z
m21 -142 c9 -10 7 -17 -6 -27 -16 -12 -17 -12 -6 2 10 12 10 18 1 27 -7 7 -9
12 -6 12 3 0 11 -6 17 -14z"/>
<path d="M4660 3766 c0 -2 7 -7 16 -10 8 -3 12 -2 9 4 -6 10 -25 14 -25 6z"/>
<path d="M4670 3720 c-13 -8 -12 -10 3 -10 9 0 17 5 17 10 0 12 -1 12 -20 0z"/>
<path d="M4676 3682 c-3 -5 1 -9 9 -9 8 0 12 4 9 9 -3 4 -7 8 -9 8 -2 0 -6 -4
-9 -8z"/>
<path d="M4680 3640 c-9 -6 -10 -10 -3 -10 6 0 15 5 18 10 8 12 4 12 -15 0z"/>
<path d="M425 3600 c-3 -5 -2 -10 4 -10 5 0 13 5 16 10 3 6 2 10 -4 10 -5 0
-13 -4 -16 -10z"/>
<path d="M456 3555 c-10 -8 -22 -12 -27 -10 -4 3 -10 1 -14 -4 -7 -13 33 -5
49 9 7 5 17 6 21 2 5 -4 5 -1 1 6 -9 15 -7 15 -30 -3z"/>
<path d="M4680 3560 c8 -5 20 -10 25 -10 6 0 3 5 -5 10 -8 5 -19 10 -25 10 -5
0 -3 -5 5 -10z"/>
<path d="M4629 3543 c-4 -9 -3 -43 1 -45 3 -1 19 6 35 16 21 11 24 16 10 14
-11 -2 -23 -7 -27 -13 -5 -6 -8 -6 -8 2 0 7 8 16 18 22 15 9 14 10 -5 8 -13
-1 -23 -3 -24 -4z"/>
<path d="M460 3530 c-8 -5 -11 -12 -7 -17 5 -4 13 -1 18 7 9 13 10 12 5 -2 -6
-20 9 -34 19 -17 11 17 -17 40 -35 29z"/>
<path d="M4675 3499 c-4 -6 -5 -12 -2 -15 2 -3 7 2 10 11 7 17 1 20 -8 4z"/>
<path d="M439 3488 c-11 -8 -11 -9 2 -5 9 3 22 0 28 -6 6 -6 13 -9 15 -6 11
11 -31 27 -45 17z"/>
<path d="M414 3458 c-3 -4 5 -5 17 -3 30 6 36 14 9 12 -12 -1 -24 -5 -26 -9z"/>
<path d="M4676 3387 c3 -10 9 -15 12 -12 3 3 0 11 -7 18 -10 9 -11 8 -5 -6z"/>
<path d="M4632 3295 c4 -4 3 -14 -4 -22 -8 -11 -7 -12 6 -7 19 7 21 20 4 30
-7 4 -10 4 -6 -1z"/>
<path d="M425 3280 c-3 -5 -2 -10 4 -10 5 0 13 5 16 10 3 6 2 10 -4 10 -5 0
-13 -4 -16 -10z"/>
<path d="M4660 3286 c0 -2 7 -7 16 -10 8 -3 12 -2 9 4 -6 10 -25 14 -25 6z"/>
<path d="M456 3235 c-10 -8 -22 -12 -27 -10 -4 3 -10 1 -14 -4 -7 -13 33 -5
49 9 7 5 17 6 21 2 5 -4 5 -1 1 6 -9 15 -7 15 -30 -3z"/>
<path d="M4670 3240 c-13 -8 -12 -10 3 -10 9 0 17 5 17 10 0 12 -1 12 -20 0z"/>
<path d="M450 3205 c-24 -13 -24 -14 -2 -12 12 1 22 6 22 12 0 5 5 3 10 -5 6
-9 10 -10 10 -3 0 19 -14 22 -40 8z"/>
<path d="M4618 3138 c9 -11 10 -18 2 -23 -6 -3 -7 -12 -3 -18 4 -7 8 -19 8
-27 0 -8 4 -20 8 -26 4 -7 0 -17 -8 -24 -11 -9 -12 -16 -5 -25 8 -9 8 -15 0
-20 -15 -9 -2 -25 15 -19 21 9 26 32 9 49 -9 8 -11 15 -5 15 6 0 11 7 11 15 0
8 6 15 13 15 6 1 1 7 -12 14 l-24 14 21 6 c12 4 22 12 22 19 0 8 -3 8 -12 -1
-17 -17 -33 -15 -18 3 7 9 11 17 9 18 -2 1 -13 9 -24 17 -18 14 -19 14 -7 -2z
m21 -142 c9 -10 7 -17 -6 -27 -16 -12 -17 -12 -6 2 10 12 10 18 1 27 -7 7 -9
12 -6 12 3 0 11 -6 17 -14z"/>
<path d="M416 3118 c3 -5 10 -6 15 -3 13 9 11 12 -6 12 -8 0 -12 -4 -9 -9z"/>
<path d="M4660 3126 c0 -2 7 -7 16 -10 8 -3 12 -2 9 4 -6 10 -25 14 -25 6z"/>
<path d="M440 3085 c6 -8 8 -20 4 -27 -5 -10 -4 -10 5 -2 13 12 5 44 -11 44
-6 0 -5 -6 2 -15z"/>
<path d="M4670 3080 c-13 -8 -12 -10 3 -10 9 0 17 5 17 10 0 12 -1 12 -20 0z"/>
<path d="M427 3039 c7 -7 15 -10 18 -7 3 3 -2 9 -12 12 -14 6 -15 5 -6 -5z"/>
<path d="M4676 3042 c-3 -5 1 -9 9 -9 8 0 12 4 9 9 -3 4 -7 8 -9 8 -2 0 -6 -4
-9 -8z"/>
<path d="M448 3003 c-3 -12 -3 -22 1 -21 19 2 24 -4 11 -13 -11 -8 -12 -12 -2
-16 6 -2 10 -9 7 -13 -3 -5 -2 -11 3 -14 5 -3 8 9 7 27 -1 18 3 36 9 40 7 6 5
7 -6 3 -11 -3 -18 1 -20 12 -3 13 -5 12 -10 -5z"/>
<path d="M4680 3000 c-9 -6 -10 -10 -3 -10 6 0 15 5 18 10 8 12 4 12 -15 0z"/>
<path d="M416 2958 c3 -5 10 -6 15 -3 13 9 11 12 -6 12 -8 0 -12 -4 -9 -9z"/>
<path d="M440 2925 c10 -12 10 -19 2 -27 -7 -7 -12 -17 -12 -22 0 -6 7 -1 15
11 15 22 11 53 -7 53 -6 0 -5 -7 2 -15z"/>
<path d="M4680 2920 c8 -5 20 -10 25 -10 6 0 3 5 -5 10 -8 5 -19 10 -25 10 -5
0 -3 -5 5 -10z"/>
<path d="M4629 2903 c-4 -9 -3 -43 1 -45 3 -1 19 6 35 16 21 11 24 16 10 14
-11 -2 -23 -7 -27 -13 -5 -6 -8 -6 -8 2 0 7 8 16 18 22 15 9 14 10 -5 8 -13
-1 -23 -3 -24 -4z"/>
<path d="M4675 2859 c-4 -6 -5 -12 -2 -15 2 -3 7 2 10 11 7 17 1 20 -8 4z"/>
<path d="M4676 2747 c3 -10 9 -15 12 -12 3 3 0 11 -7 18 -10 9 -11 8 -5 -6z"/>
<path d="M440 2688 c-12 -8 -12 -9 2 -4 10 3 20 1 23 -4 9 -14 25 -12 25 2 0
6 -3 8 -7 5 -3 -4 -11 -3 -17 3 -7 5 -17 5 -26 -2z"/>
<path d="M414 2658 c-3 -4 5 -5 17 -3 30 6 36 14 9 12 -12 -1 -24 -5 -26 -9z"/>
<path d="M4632 2655 c4 -4 3 -14 -4 -22 -8 -11 -7 -12 6 -7 19 7 21 20 4 30
-7 4 -10 4 -6 -1z"/>
<path d="M4660 2646 c0 -2 7 -7 16 -10 8 -3 12 -2 9 4 -6 10 -25 14 -25 6z"/>
<path d="M4670 2600 c-13 -8 -12 -10 3 -10 9 0 17 5 17 10 0 12 -1 12 -20 0z"/>
<path d="M4618 2498 c9 -11 10 -18 2 -23 -6 -3 -7 -12 -3 -18 4 -7 8 -19 8
-27 0 -8 4 -20 8 -26 4 -7 0 -17 -8 -24 -11 -9 -12 -16 -5 -25 8 -9 8 -15 0
-20 -15 -9 -2 -25 15 -19 21 9 26 32 9 49 -9 8 -11 15 -5 15 6 0 11 7 11 15 0
8 6 15 13 15 6 1 1 7 -12 14 l-24 14 21 6 c12 4 22 12 22 19 0 8 -3 8 -12 -1
-17 -17 -33 -15 -18 3 7 9 11 17 9 18 -2 1 -13 9 -24 17 -18 14 -19 14 -7 -2z
m21 -142 c9 -10 7 -17 -6 -27 -16 -12 -17 -12 -6 2 10 12 10 18 1 27 -7 7 -9
12 -6 12 3 0 11 -6 17 -14z"/>
<path d="M4660 2486 c0 -2 7 -7 16 -10 8 -3 12 -2 9 4 -6 10 -25 14 -25 6z"/>
<path d="M420 2440 c0 -6 7 -10 15 -10 8 0 15 2 15 4 0 2 -7 6 -15 10 -8 3
-15 1 -15 -4z"/>
<path d="M4670 2440 c-13 -8 -12 -10 3 -10 9 0 17 5 17 10 0 12 -1 12 -20 0z"/>
<path d="M4676 2402 c-3 -5 1 -9 9 -9 8 0 12 4 9 9 -3 4 -7 8 -9 8 -2 0 -6 -4
-9 -8z"/>
<path d="M4680 2360 c-9 -6 -10 -10 -3 -10 6 0 15 5 18 10 8 12 4 12 -15 0z"/>
<path d="M4680 2280 c8 -5 20 -10 25 -10 6 0 3 5 -5 10 -8 5 -19 10 -25 10 -5
0 -3 -5 5 -10z"/>
<path d="M4629 2263 c-4 -9 -3 -43 1 -45 3 -1 19 6 35 16 21 11 24 16 10 14
-11 -2 -23 -7 -27 -13 -5 -6 -8 -6 -8 2 0 7 8 16 18 22 15 9 14 10 -5 8 -13
-1 -23 -3 -24 -4z"/>
<path d="M435 2240 c-3 -5 -1 -10 4 -10 6 0 11 5 11 10 0 6 -2 10 -4 10 -3 0
-8 -4 -11 -10z"/>
<path d="M4675 2219 c-4 -6 -5 -12 -2 -15 2 -3 7 2 10 11 7 17 1 20 -8 4z"/>
<path d="M416 2158 c3 -5 10 -6 15 -3 13 9 11 12 -6 12 -8 0 -12 -4 -9 -9z"/>
<path d="M440 2125 c6 -8 8 -20 4 -27 -5 -10 -4 -10 5 -2 13 12 5 44 -11 44
-6 0 -5 -6 2 -15z"/>
<path d="M4676 2107 c3 -10 9 -15 12 -12 3 3 0 11 -7 18 -10 9 -11 8 -5 -6z"/>
<path d="M427 2079 c7 -7 15 -10 18 -7 3 3 -2 9 -12 12 -14 6 -15 5 -6 -5z"/>
<path d="M448 2043 c-3 -12 -3 -22 1 -21 19 2 24 -4 11 -13 -11 -8 -12 -12 -2
-16 6 -2 10 -9 7 -13 -3 -5 -2 -11 3 -14 5 -3 8 9 7 27 -1 18 3 36 9 40 7 6 5
7 -6 3 -11 -3 -18 1 -20 12 -3 13 -5 12 -10 -5z"/>
<path d="M4632 2015 c4 -4 3 -14 -4 -22 -8 -11 -7 -12 6 -7 19 7 21 20 4 30
-7 4 -10 4 -6 -1z"/>
<path d="M416 1998 c3 -5 10 -6 15 -3 13 9 11 12 -6 12 -8 0 -12 -4 -9 -9z"/>
<path d="M4660 2006 c0 -2 7 -7 16 -10 8 -3 12 -2 9 4 -6 10 -25 14 -25 6z"/>
<path d="M440 1965 c10 -12 10 -18 -1 -32 -12 -17 -12 -17 4 -2 18 16 14 49
-5 49 -6 0 -5 -6 2 -15z"/>
<path d="M4670 1960 c-13 -8 -12 -10 3 -10 9 0 17 5 17 10 0 12 -1 12 -20 0z"/>
<path d="M4687 1919 c7 -7 15 -10 18 -7 3 3 -2 9 -12 12 -14 6 -15 5 -6 -5z"/>
<path d="M420 1880 c0 -6 7 -10 15 -10 8 0 15 2 15 4 0 2 -7 6 -15 10 -8 3
-15 1 -15 -4z"/>
<path d="M4660 1878 c0 -4 7 -8 15 -8 8 0 15 4 15 8 0 5 -7 9 -15 9 -8 0 -15
-4 -15 -9z"/>
<path d="M4615 1870 c-3 -5 -1 -12 5 -15 8 -5 8 -11 0 -20 -8 -10 -8 -15 1
-21 8 -4 9 -3 5 4 -4 6 5 17 19 25 l26 13 -25 12 c-14 6 -28 7 -31 2z m30 -18
c-3 -3 -11 0 -18 7 -9 10 -8 11 6 5 10 -3 15 -9 12 -12z"/>
<path d="M433 1829 c-2 -23 3 -25 10 -4 4 8 3 16 -1 19 -4 3 -9 -4 -9 -15z"/>
<path d="M4670 1840 c-9 -6 -10 -10 -3 -10 6 0 15 5 18 10 8 12 4 12 -15 0z"/>
<path d="M396 1693 c-6 -14 -5 -15 5 -6 7 7 10 15 7 18 -3 3 -9 -2 -12 -12z"/>
<path d="M4750 1700 c0 -5 5 -10 11 -10 5 0 7 5 4 10 -3 6 -8 10 -11 10 -2 0
-4 -4 -4 -10z"/>
<path d="M55 1691 c-3 -5 -2 -12 3 -15 5 -3 9 1 9 9 0 17 -3 19 -12 6z"/>
<path d="M101 1674 c0 -11 3 -14 6 -6 3 7 2 16 -1 19 -3 4 -6 -2 -5 -13z"/>
<path d="M154 1678 c-4 -7 -4 -10 1 -6 4 4 15 2 24 -5 14 -11 14 -10 2 6 -16
20 -18 21 -27 5z"/>
<path d="M362 1678 c-8 -8 -9 -15 -1 -25 8 -9 8 -13 0 -13 -6 0 -14 7 -18 16
-3 9 -8 11 -12 6 -9 -15 -46 -19 -44 -4 2 6 -2 12 -7 12 -14 0 -13 -13 2 -28
9 -9 9 -12 1 -12 -7 0 -15 5 -18 10 -3 6 -16 9 -28 9 -17 -1 -18 -2 -4 -6 9
-2 15 -9 12 -14 -3 -5 2 -6 11 -2 13 5 15 3 9 -8 -4 -8 -5 -11 0 -7 4 4 15 2
23 -5 13 -10 14 -9 8 2 -5 8 -3 17 5 22 18 11 32 11 25 0 -3 -5 1 -15 10 -22
12 -10 15 -10 12 2 -2 8 4 14 12 14 8 0 21 4 28 8 6 5 16 6 21 3 10 -7 9 20
-2 30 -3 4 -13 1 -21 -5 -9 -7 -17 -8 -20 -2 -3 5 0 11 6 14 7 2 10 7 7 10 -3
4 -11 1 -17 -5z m47 -21 c-2 -1 -13 -9 -24 -17 -19 -14 -19 -14 -6 3 7 9 18
17 24 17 6 0 8 -1 6 -3z m-64 -16 c3 -5 2 -12 -3 -15 -5 -3 -9 1 -9 9 0 17 3
19 12 6z"/>
<path d="M4736 1677 c3 -10 9 -15 12 -12 3 3 0 11 -7 18 -10 9 -11 8 -5 -6z"/>
<path d="M4835 1680 c3 -5 8 -10 11 -10 2 0 4 5 4 10 0 6 -5 10 -11 10 -5 0
-7 -4 -4 -10z"/>
<path d="M4875 1680 c-3 -5 -1 -10 4 -10 6 0 11 5 11 10 0 6 -2 10 -4 10 -3 0
-8 -4 -11 -10z"/>
<path d="M14 1636 c-1 -17 3 -24 15 -23 14 1 15 5 7 24 -14 29 -21 29 -22 -1z"/>
<path d="M4966 1614 c-6 -16 10 -19 19 -4 4 6 12 7 18 4 7 -4 8 -3 4 1 -13 15
-35 14 -41 -1z"/>
<path d="M186 1608 c3 -5 10 -6 15 -3 13 9 11 12 -6 12 -8 0 -12 -4 -9 -9z"/>
<path d="M336 732 c-3 -4 4 -9 15 -9 23 -2 25 3 4 10 -8 4 -16 3 -19 -1z"/>
<path d="M4750 715 c-8 -9 -8 -15 -2 -15 12 0 26 19 19 26 -2 2 -10 -2 -17
-11z"/>
<path d="M113 683 c4 -3 2 -12 -5 -20 -8 -11 -7 -12 6 -7 18 7 22 34 4 34 -6
0 -8 -3 -5 -7z"/>
<path d="M4786 682 c-3 -5 1 -9 9 -9 8 0 15 4 15 9 0 4 -4 8 -9 8 -6 0 -12 -4
-15 -8z"/>
<path d="M275 671 c-3 -5 -2 -12 3 -15 5 -3 9 1 9 9 0 17 -3 19 -12 6z"/>
<path d="M215 660 c3 -5 8 -10 11 -10 2 0 4 5 4 10 0 6 -5 10 -11 10 -5 0 -7
-4 -4 -10z"/>
<path d="M5030 660 c0 -5 7 -7 15 -4 8 4 15 8 15 10 0 2 -7 4 -15 4 -8 0 -15
-4 -15 -10z"/>
<path d="M4710 601 c0 -6 4 -13 10 -16 6 -3 7 1 4 9 -7 18 -14 21 -14 7z"/>
<path d="M420 520 c0 -6 7 -10 15 -10 8 0 15 2 15 4 0 2 -7 6 -15 10 -8 3 -15
1 -15 -4z"/>
<path d="M4670 520 c-13 -8 -12 -10 3 -10 9 0 17 5 17 10 0 12 -1 12 -20 0z"/>
<path d="M4634 505 c13 -10 15 -15 6 -15 -7 0 -10 -3 -7 -7 4 -3 2 -12 -4 -19
-7 -8 -7 -14 1 -19 8 -5 4 -15 -12 -33 -13 -14 -18 -23 -13 -19 6 3 19 -1 30
-9 12 -9 14 -14 5 -14 -7 0 -10 -3 -7 -6 10 -10 37 16 36 35 0 14 -1 14 -7 -1
-5 -13 -11 -15 -22 -8 -8 5 -10 10 -4 10 19 0 24 28 8 45 -9 8 -11 15 -5 15 6
0 11 6 11 14 0 8 5 16 11 18 6 2 -2 9 -17 16 -27 11 -27 11 -10 -3z m16 -79
c0 -2 -8 -10 -17 -17 -16 -13 -17 -12 -4 4 13 16 21 21 21 13z"/>
<path d="M4681 436 c-9 -11 -9 -16 1 -22 7 -4 10 -4 6 1 -4 4 -3 14 3 22 6 7
9 13 6 13 -2 0 -10 -6 -16 -14z"/>
<path d="M4679 375 c-1 -3 -2 -11 -3 -17 -1 -7 -8 -12 -15 -10 -7 1 -9 -2 -6
-9 9 -13 28 3 31 26 2 13 -4 22 -7 10z"/>
<path d="M4616 335 c-3 -9 -10 -13 -16 -10 -5 3 -10 1 -10 -4 0 -6 6 -11 13
-11 14 -1 -23 -24 -38 -25 -5 0 -10 -6 -10 -13 0 -8 -8 -20 -19 -27 -18 -13
-18 -14 2 -12 11 0 18 5 16 9 -3 4 -1 8 5 8 5 0 11 -6 14 -12 2 -7 3 -3 1 8
-2 12 4 28 13 35 14 12 15 11 10 -11 -4 -16 -1 -12 10 10 9 19 16 38 15 43 -3
12 16 8 21 -5 4 -8 6 -9 6 -2 1 6 -5 17 -13 23 -11 9 -15 8 -20 -4z"/>
<path d="M4626 283 c-6 -14 -5 -15 5 -6 7 7 10 15 7 18 -3 3 -9 -2 -12 -12z"/>
<path d="M2204 265 c1 -8 5 -17 8 -21 4 -3 4 -13 1 -22 -4 -14 -3 -15 5 -2 6
8 8 18 6 22 -3 4 2 5 11 1 9 -3 13 -9 8 -12 -4 -3 -9 -15 -11 -26 -2 -18 -1
-18 11 3 7 12 17 19 21 15 5 -4 3 2 -5 14 -7 12 -17 19 -21 17 -5 -3 -11 2
-14 10 -8 20 -23 21 -20 1z"/>
<path d="M3030 260 c-14 -26 -3 -38 33 -35 12 1 26 -3 30 -9 6 -7 7 -5 4 5 -3
9 -1 21 5 27 7 7 5 10 -8 8 -11 -2 -27 3 -36 11 -15 13 -18 12 -28 -7z m35
-10 c4 -6 11 -7 17 -4 7 4 8 2 4 -5 -6 -9 -11 -9 -22 0 -11 9 -14 9 -14 0 0
-7 -5 -9 -10 -6 -11 7 -4 25 10 25 5 0 12 -5 15 -10z"/>
<path d="M639 248 c-11 -8 -10 -9 4 -4 13 4 17 1 15 -11 -2 -11 4 -18 17 -20
14 -1 15 0 3 3 -10 3 -15 11 -11 19 4 12 7 12 19 0 8 -8 21 -12 30 -8 18 6 13
13 -13 18 -10 2 -18 4 -18 5 0 7 -35 6 -46 -2z"/>
<path d="M1989 248 c11 -15 10 -19 -13 -29 -14 -7 -26 -16 -26 -21 0 -5 -6 -3
-14 4 -8 7 -12 16 -9 21 2 4 -1 7 -6 7 -6 0 -11 -5 -11 -11 0 -5 -6 -7 -12 -3
-7 4 -10 4 -6 -1 4 -4 2 -15 -5 -23 -9 -12 -9 -14 0 -9 7 5 17 -1 23 -14 7
-11 14 -18 17 -15 3 3 0 12 -6 20 -8 9 -8 16 -2 20 5 4 14 -2 20 -11 6 -11 11
-13 11 -5 0 7 5 10 12 6 6 -4 8 -3 4 4 -3 6 7 18 24 28 16 10 32 25 35 33 5
13 4 13 -6 4 -10 -10 -16 -10 -28 0 -14 11 -14 10 -2 -5z"/>
<path d="M2698 253 c-8 -15 -3 -36 9 -40 7 -3 16 3 19 11 5 13 9 14 21 4 12
-10 17 -9 27 4 9 13 13 13 24 2 7 -7 19 -11 27 -8 11 5 12 9 2 19 -7 7 -14 9
-15 4 -2 -6 -10 -5 -18 2 -11 9 -15 8 -20 -5 -3 -9 -10 -16 -16 -16 -5 0 -7 4
-3 9 3 5 1 12 -4 15 -5 4 -13 2 -16 -4 -5 -8 -11 -8 -20 0 -7 6 -15 7 -17 3z
m22 -24 c0 -5 -4 -9 -8 -9 -5 0 -9 7 -9 15 0 8 4 12 9 9 4 -3 8 -9 8 -15z"/>
<path d="M510 241 c0 -6 4 -13 10 -16 6 -3 7 1 4 9 -7 18 -14 21 -14 7z"/>
<path d="M2390 239 c0 -5 5 -7 10 -4 6 3 10 8 10 11 0 2 -4 4 -10 4 -5 0 -10
-5 -10 -11z"/>
<path d="M731 204 c0 -11 3 -14 6 -6 3 7 2 16 -1 19 -3 4 -6 -2 -5 -13z"/>
<path d="M2004 204 c-18 -14 -18 -15 4 -4 12 6 22 13 22 15 0 8 -5 6 -26 -11z"/>
<path d="M2075 210 c3 -5 8 -10 11 -10 2 0 4 5 4 10 0 6 -5 10 -11 10 -5 0 -7
-4 -4 -10z"/>
<path d="M2485 210 c-16 -7 -17 -9 -3 -9 9 -1 20 4 23 9 7 11 7 11 -20 0z"/>
<path d="M3018 208 c5 -5 16 -8 23 -6 8 3 3 7 -10 11 -17 4 -21 3 -13 -5z"/>
<path d="M3106 204 c-6 -15 -4 -15 11 -3 10 7 20 15 22 16 2 2 -3 3 -11 3 -9
0 -19 -7 -22 -16z"/>
<path d="M4421 204 c0 -11 3 -14 6 -6 3 7 2 16 -1 19 -3 4 -6 -2 -5 -13z"/>
<path d="M515 200 c3 -5 8 -10 11 -10 2 0 4 5 4 10 0 6 -5 10 -11 10 -5 0 -7
-4 -4 -10z"/>
<path d="M620 206 c0 -2 9 -6 20 -9 11 -3 18 -1 14 4 -5 9 -34 13 -34 5z"/>
<path d="M790 202 c0 -5 7 -9 15 -9 8 0 12 4 9 9 -3 4 -9 8 -15 8 -5 0 -9 -4
-9 -8z"/>
<path d="M2190 205 c0 -5 5 -17 10 -25 5 -8 10 -10 10 -5 0 6 -5 17 -10 25 -5
8 -10 11 -10 5z"/>
<path d="M2256 201 c-4 -5 3 -7 14 -4 23 6 26 13 6 13 -8 0 -17 -4 -20 -9z"/>
<path d="M2590 201 c0 -6 4 -13 10 -16 6 -3 7 1 4 9 -7 18 -14 21 -14 7z"/>
<path d="M2675 201 c-3 -5 -2 -12 3 -15 5 -3 9 1 9 9 0 17 -3 19 -12 6z"/>
<path d="M2730 199 c0 -5 5 -7 10 -4 6 3 10 8 10 11 0 2 -4 4 -10 4 -5 0 -10
-5 -10 -11z"/>
<path d="M2760 206 c0 -2 7 -7 16 -10 8 -3 12 -2 9 4 -6 10 -25 14 -25 6z"/>
<path d="M2993 195 c0 -8 4 -12 9 -9 5 3 6 10 3 15 -9 13 -12 11 -12 -6z"/>
<path d="M3193 127 c0 -8 6 -14 14 -14 9 0 10 4 2 14 -6 7 -12 13 -14 13 -1 0
-2 -6 -2 -13z"/>
<path d="M870 121 c0 -6 4 -12 8 -15 5 -3 9 1 9 9 0 8 -4 15 -9 15 -4 0 -8 -4
-8 -9z"/>
<path d="M1834 89 c-3 -6 2 -18 12 -27 17 -16 17 -16 5 0 -7 9 -10 22 -6 28 3
5 4 10 1 10 -3 0 -8 -5 -12 -11z"/>
</g>
</svg>
